<svg width="16" height="15" viewBox="0 0 16 15" fill="none" xmlns="http://www.w3.org/2000/svg">
<g clip-path="url(#clip0_1605_4)">
<path d="M7.78651 0.365162C7.81654 0.143904 8.18346 0.143904 8.21349 0.365162L8.4652 2.22131C8.79021 4.6181 10.9499 6.50779 13.689 6.79217L15.8103 7.01241C16.0632 7.03869 16.0632 7.35975 15.8103 7.38603L13.689 7.60626C10.9499 7.89065 8.79021 9.78034 8.4652 12.1771L8.21349 14.0333C8.18346 14.2545 7.81654 14.2545 7.78651 14.0333L7.53481 12.1771C7.20979 9.78034 5.05015 7.89065 2.31096 7.60626L0.189649 7.38603C-0.0632164 7.35975 -0.0632164 7.03869 0.189649 7.01241L2.31096 6.79217C5.05015 6.50779 7.20979 4.6181 7.53481 2.22131L7.78651 0.365162Z" fill="#829D86"/>
</g>
<defs>
<clipPath id="clip0_1605_4">
<rect width="16" height="15" fill="white"/>
</clipPath>
</defs>
</svg>
