<?xml version="1.0" encoding="UTF-8" standalone="no"?>
<!-- Created with Inkscape (http://www.inkscape.org/) -->

<svg
   width="210mm"
   height="297mm"
   viewBox="0 0 210 297"
   version="1.1"
   id="svg5"
   inkscape:version="1.1.2 (b8e25be833, 2022-02-05)"
   sodipodi:docname="рисунок-6.svg"
   xmlns:inkscape="http://www.inkscape.org/namespaces/inkscape"
   xmlns:sodipodi="http://sodipodi.sourceforge.net/DTD/sodipodi-0.dtd"
   xmlns="http://www.w3.org/2000/svg"
   xmlns:svg="http://www.w3.org/2000/svg">
  <sodipodi:namedview
     id="namedview7"
     pagecolor="#ffffff"
     bordercolor="#111111"
     borderopacity="1"
     inkscape:pageshadow="0"
     inkscape:pageopacity="0"
     inkscape:pagecheckerboard="1"
     inkscape:document-units="mm"
     showgrid="false"
     inkscape:zoom="0.74029882"
     inkscape:cx="396.46153"
     inkscape:cy="561.93525"
     inkscape:window-width="1920"
     inkscape:window-height="1017"
     inkscape:window-x="-8"
     inkscape:window-y="-8"
     inkscape:window-maximized="1"
     inkscape:current-layer="layer1" />
  <defs
     id="defs2">
    <inkscape:path-effect
       effect="spiro"
       id="path-effect867"
       is_visible="true"
       lpeversion="1" />
  </defs>
  <g
     inkscape:label="Слой 1"
     inkscape:groupmode="layer"
     id="layer1">
    <path
       style="opacity:0.93;fill:#1b66ce;fill-rule:evenodd;stroke:#1b66ce;stroke-width:0.413343;fill-opacity:1;stroke-opacity:1"
       d="m 197.90456,248.22833 c -3.22718,-1.54592 -13.07719,-5.21857 -17.6681,-6.58766 -11.4949,-3.42801 -20.04181,-4.81809 -42.02698,-6.83535 -21.69792,-1.9909 -29.31179,-3.1174 -38.640499,-5.71705 -16.473561,-4.59072 -28.003778,-11.48081 -37.666573,-22.50835 -5.17578,-5.9068 -8.724757,-11.3992 -11.972368,-18.52844 -3.859297,-8.47204 -5.450157,-14.8508 -6.212758,-24.91085 -0.736925,-9.72136 -1.528947,-13.30794 -4.133272,-18.71708 -1.831069,-3.80311 -3.227629,-5.94922 -9.202474,-14.14156 -5.732247,-7.85972 -8.03039,-11.58537 -10.206435,-16.54617 C 15.700695,103.53533 14.463607,94.07738 15.387024,77.129406 16.370117,59.08618 18.987427,29.5893 19.684965,28.691967 c 0.15365,-0.19766 1.740953,0.707879 3.527343,2.012305 14.671524,10.71318 30.792228,18.322172 55.340598,26.120824 12.01644,3.817447 15.994405,5.355213 20.667888,7.989575 8.655696,4.879068 13.695096,10.792137 19.517056,22.900733 1.28307,2.668548 3.33166,6.926448 4.5524,9.46198 1.22074,2.535531 3.83582,7.398486 5.81128,10.806546 1.97545,3.40806 5.02043,9.27302 6.76662,13.03325 5.85343,12.60482 8.65402,15.64745 19.07997,20.72897 9.36702,4.56541 12.34958,6.65437 16.78833,11.75836 10.18024,11.70598 18.65384,36.37863 23.9873,69.84397 1.38918,8.71657 3.71259,25.25929 3.57028,25.42039 -0.0427,0.0484 -0.66797,-0.19492 -1.38947,-0.54054 z"
       id="path906" />
  </g>
</svg>
