<?xml version="1.0" encoding="UTF-8" standalone="no"?>
<!-- Created with Inkscape (http://www.inkscape.org/) -->

<svg
   width="210mm"
   height="297mm"
   viewBox="0 0 210 297"
   version="1.1"
   id="svg5"
   inkscape:version="1.1.2 (b8e25be833, 2022-02-05)"
   sodipodi:docname="рисунок-5.svg"
   xmlns:inkscape="http://www.inkscape.org/namespaces/inkscape"
   xmlns:sodipodi="http://sodipodi.sourceforge.net/DTD/sodipodi-0.dtd"
   xmlns="http://www.w3.org/2000/svg"
   xmlns:svg="http://www.w3.org/2000/svg">
  <sodipodi:namedview
     id="namedview7"
     pagecolor="#ffffff"
     bordercolor="#111111"
     borderopacity="1"
     inkscape:pageshadow="0"
     inkscape:pageopacity="0"
     inkscape:pagecheckerboard="1"
     inkscape:document-units="mm"
     showgrid="false"
     inkscape:zoom="0.74029882"
     inkscape:cx="396.46153"
     inkscape:cy="561.93525"
     inkscape:window-width="1920"
     inkscape:window-height="1017"
     inkscape:window-x="-8"
     inkscape:window-y="-8"
     inkscape:window-maximized="1"
     inkscape:current-layer="layer1" />
  <defs
     id="defs2">
    <inkscape:path-effect
       effect="spiro"
       id="path-effect903"
       is_visible="true"
       lpeversion="1" />
    <inkscape:path-effect
       effect="spiro"
       id="path-effect899"
       is_visible="true"
       lpeversion="1" />
    <inkscape:path-effect
       effect="spiro"
       id="path-effect895"
       is_visible="true"
       lpeversion="1" />
    <inkscape:path-effect
       effect="spiro"
       id="path-effect891"
       is_visible="true"
       lpeversion="1" />
    <inkscape:path-effect
       effect="spiro"
       id="path-effect887"
       is_visible="true"
       lpeversion="1" />
    <inkscape:path-effect
       effect="spiro"
       id="path-effect879"
       is_visible="true"
       lpeversion="1" />
    <inkscape:path-effect
       effect="spiro"
       id="path-effect871"
       is_visible="true"
       lpeversion="1" />
  </defs>
  <g
     inkscape:label="Слой 1"
     inkscape:groupmode="layer"
     id="layer1">
    <path
       style="opacity:0.93;fill:#cbb6f2;fill-rule:evenodd;stroke:#cbb6f2;stroke-width:0.357402;fill-opacity:1;stroke-opacity:1"
       d="m 80.658806,259.2837 c -3.187242,-0.69314 -6.055111,-2.22017 -8.560607,-4.5582 -3.693927,-3.44702 -5.295836,-7.39222 -7.111185,-17.51349 -0.343755,-1.91656 -0.738177,-3.48465 -0.876496,-3.48465 -0.138319,0 -0.615251,0.80488 -1.059854,1.78864 -0.444601,0.98375 -1.51547,2.49574 -2.379708,3.35998 -4.90479,4.9048 -12.584028,4.76325 -17.268034,-0.31829 -2.395436,-2.59875 -3.077114,-4.41972 -3.079252,-8.22564 -0.0016,-3.05676 0.06569,-3.33873 1.356482,-5.67417 1.549624,-2.80377 1.787435,-2.69425 -2.787891,-1.28391 -3.225342,0.99421 -8.949119,1.10064 -12.330324,0.22928 C 17.178163,221.185 9.8641178,213.789 7.5917521,204.4205 c -0.6693247,-2.75949 -0.5971477,-8.60183 0.141292,-11.43683 0.8768169,-3.36624 3.2631299,-8.03518 4.6355559,-9.06969 2.887392,-2.17646 36.596282,-22.53287 55.29442,-33.39166 6.781679,-3.93841 12.612754,-7.37451 12.957945,-7.63579 0.593193,-0.449 0.594768,-0.57309 0.02873,-2.26206 -0.875662,-2.61286 -0.8675,-10.3267 0.01402,-13.22383 1.001249,-3.2907 3.014813,-7.08307 5.249405,-9.88677 6.711635,-8.42098 18.84368,-13.12523 30.49231,-11.82353 2.0369,0.22761 4.77535,0.6831 6.08546,1.01219 1.31011,0.32909 2.44893,0.53144 2.53071,0.44966 0.0818,-0.0818 -0.32865,-11.964024 -0.91206,-26.404994 -1.37946,-34.145 -1.34711,-30.990312 -0.33628,-32.78884 1.67763,-2.984934 4.59643,-4.20801 9.83019,-4.119186 10.02786,0.170188 20.04763,6.08172 24.95656,14.724046 l 0.84071,1.4801 1.39739,-1.12507 c 0.76857,-0.618788 2.35193,-1.581406 3.51858,-2.139147 7.98387,-3.81688 16.34791,-1.237375 19.814,6.110707 0.78916,1.67302 0.92503,2.44465 0.91252,5.18231 -0.0123,2.68115 -0.1683,3.55109 -0.93733,5.22591 -0.50745,1.10512 -1.10141,2.1198 -1.31993,2.25485 -0.21852,0.13505 -0.3973,0.46036 -0.3973,0.72292 0,0.36869 0.30512,0.40651 1.34025,0.16613 5.9381,-1.37896 13.13635,1.6115 16.62006,6.90468 3.5815,5.44176 3.92432,11.59883 0.97153,17.448284 -2.85332,5.65239 -9.44603,9.60597 -16.0482,9.62394 -1.60199,0.004 -5.50593,1.26176 -22.33754,7.19459 -11.21796,3.95412 -20.50448,7.29135 -20.63671,7.41607 -0.13224,0.12471 0.13869,1.35256 0.60207,2.72855 1.91449,5.68503 1.90986,11.57814 -0.0139,17.64291 -1.25669,3.96187 -3.15493,6.96575 -6.60029,10.44465 -7.41141,7.48355 -16.92793,10.10788 -26.9125,7.42157 -1.53226,-0.41224 -2.84847,-0.68699 -2.92491,-0.61056 -0.0764,0.0764 -1.11274,18.31005 -2.3029,40.51913 -1.19013,22.20907 -2.34216,41.2647 -2.56005,42.34584 -1.39003,6.89738 -7.626165,12.83731 -14.622937,13.92837 -2.87959,0.44904 -3.556719,0.43118 -6.303851,-0.16625 z"
       id="path942" />
  </g>
</svg>
