<?xml version="1.0" encoding="UTF-8" standalone="no"?>
<!-- Created with Inkscape (http://www.inkscape.org/) -->

<svg
   width="210mm"
   height="297mm"
   viewBox="0 0 210 297"
   version="1.1"
   id="svg5"
   inkscape:version="1.1.2 (b8e25be833, 2022-02-05)"
   sodipodi:docname="рисунок.svg"
   xmlns:inkscape="http://www.inkscape.org/namespaces/inkscape"
   xmlns:sodipodi="http://sodipodi.sourceforge.net/DTD/sodipodi-0.dtd"
   xmlns="http://www.w3.org/2000/svg"
   xmlns:svg="http://www.w3.org/2000/svg">
  <sodipodi:namedview
     id="namedview7"
     pagecolor="#ffffff"
     bordercolor="#111111"
     borderopacity="1"
     inkscape:pageshadow="0"
     inkscape:pageopacity="0"
     inkscape:pagecheckerboard="1"
     inkscape:document-units="mm"
     showgrid="false"
     inkscape:zoom="0.74029882"
     inkscape:cx="396.46153"
     inkscape:cy="561.93525"
     inkscape:window-width="1920"
     inkscape:window-height="1017"
     inkscape:window-x="-8"
     inkscape:window-y="-8"
     inkscape:window-maximized="1"
     inkscape:current-layer="layer1" />
  <defs
     id="defs2">
    <inkscape:path-effect
       effect="spiro"
       id="path-effect879"
       is_visible="true"
       lpeversion="1" />
  </defs>
  <g
     inkscape:label="Слой 1"
     inkscape:groupmode="layer"
     id="layer1">
    <path
       style="fill:none;stroke:#000000;stroke-width:0.264583px;stroke-linecap:butt;stroke-linejoin:miter;stroke-opacity:1"
       d="M 19.657039,88.992778 C 17.237241,84.235485 15.088215,79.340481 13.223827,74.339349 11.987381,71.022643 10.872188,67.644198 10.26343,64.157258 9.6546715,60.670317 9.5634441,57.057926 10.364621,53.610107 c 1.095036,-4.712423 3.865198,-8.9843 7.590444,-12.071139 3.725246,-3.086839 8.371695,-5.001238 13.166427,-5.646666 4.794732,-0.645429 9.727209,-0.04345 14.301054,1.533244 4.573845,1.576699 8.792839,4.113041 12.47637,7.249542 4.826274,4.109539 8.755691,9.266898 11.436823,15.010831 -2.054898,-5.842363 -2.054898,-12.385072 10e-7,-18.227435 1.866534,-5.306815 5.404886,-10.007264 9.971145,-13.292916 4.566259,-3.285651 10.138107,-5.145811 15.761707,-5.291922 5.923678,-0.153908 11.850338,1.582026 16.880078,4.714969 5.02975,3.132943 9.16545,7.632316 12.06938,12.797667 2.05919,3.662786 3.51428,7.664284 4.28881,11.794223 3.23307,-2.847615 6.84997,-5.258882 10.72202,-7.148014 6.1294,-2.990466 12.97837,-4.665328 19.78452,-4.230868 6.80615,0.43446 13.55016,3.068656 18.45736,7.804875 5.81221,5.609696 8.68333,13.74666 9.29242,21.801444 0.31584,4.176809 0.0748,8.395385 -0.7148,12.509026 4.96372,2.344291 9.47707,5.63782 13.22382,9.649819 4.73719,5.072566 8.24083,11.311823 9.96976,18.033633 1.72893,6.72181 1.66433,13.91473 -0.31994,20.56564 -1.6555,5.54893 -4.66899,10.73779 -8.93502,14.65343 -3.61231,3.31561 -8.09076,5.67925 -12.86642,6.79062 2.31761,3.65963 4.58147,7.3533 6.79061,11.07942 2.75868,4.65301 5.46325,9.43274 6.77232,14.68128 0.65453,2.62426 0.94943,5.35185 0.70233,8.0452 -0.24709,2.69336 -1.04714,5.35307 -2.47104,7.65258 -0.89338,1.44275 -2.01941,2.72876 -3.21661,3.93141 -7.29963,7.33285 -17.53135,11.66166 -27.87725,11.79422 1.33168,6.79803 -0.23248,14.11471 -4.2273,19.77404 -3.99482,5.65933 -10.36526,9.58335 -17.21674,10.60503 -7.66802,1.14345 -15.67057,-1.33048 -21.80145,-6.07582 -4.84952,-3.75356 -8.61188,-8.89544 -10.72202,-14.65343 -1.87846,3.73624 -4.74104,6.9722 -8.22022,9.29242 -2.13032,1.42068 -4.46889,2.49409 -6.790611,3.57401 -5.748983,2.67407 -11.537222,5.4508 -17.758109,6.67637 -3.110443,0.61279 -6.315304,0.82737 -9.460118,0.42672 -3.144813,-0.40064 -6.230642,-1.42948 -8.879246,-3.17168 -2.193613,-1.44292 -4.045638,-3.33857 -6.075812,-5.00361 -1.309626,-1.07408 -2.697975,-2.05583 -3.931408,-3.21661 -2.784802,-2.62077 -4.70857,-6.14197 -5.409456,-9.90126 -0.700887,-3.7593 -0.175247,-7.73717 1.478048,-11.18538 -3.219841,-0.0329 -6.44123,0.0864 -9.649819,0.3574 -4.293799,0.36259 -8.672862,0.99106 -12.866426,0 -3.675145,-0.86854 -7.004264,-2.96791 -9.600807,-5.70999 -2.596542,-2.74209 -4.483925,-6.10667 -5.767424,-9.65824 C 7.0881754,181.86896 8.4519066,170.14087 14.296029,161.18773 8.5960836,158.79588 4.0713061,153.75952 2.3013259,147.8369 0.5313457,141.91427 1.5507319,135.22104 5.0036101,130.09386 7.0553718,127.0472 9.9217742,124.55468 13.223827,122.94585 8.237952,120.42691 4.4975957,115.56937 3.3364854,110.10533 2.1753752,104.64128 3.617267,98.682512 7.1480144,94.353791 10.223896,90.582739 14.819044,88.08823 19.65704,87.563177"
       id="path877"
       inkscape:path-effect="#path-effect879"
       inkscape:original-d="m 19.657039,88.992778 c -0.818457,-5.152033 -4.5183,-9.674656 -6.433212,-14.653429 -2.11988,-5.511687 -5.4845127,-14.822303 -2.859206,-20.729242 6.197291,-13.943906 35.655461,-13.686552 47.534295,-8.935019 7.025716,2.810288 8.605043,9.347274 11.436823,15.010831 0.712702,-5.973844 -0.850598,-12.27324 10e-7,-18.227435 1.854161,-12.979129 13.910238,-18.584838 25.732852,-18.584838 16.828158,0 22.273108,2.49084 28.949458,17.512636 1.6033,3.607412 4.28881,7.620675 4.28881,11.794223 3.48592,-2.628294 6.97761,-4.901365 10.72202,-7.148014 13.85206,-8.311237 27.24214,-8.997127 38.24188,3.574007 6.46516,7.388756 9.29242,12.240006 9.29242,21.801444 0,3.337084 1.22434,9.600304 -0.7148,12.509026 2.6771,5.019625 10.28049,4.744273 13.22382,9.649819 5.02484,8.374733 12.4204,28.625193 9.64982,38.599273 -1.59314,5.73533 -5.17882,10.2712 -8.93502,14.65343 -2.99765,3.49727 -8.11104,6.79062 -12.86642,6.79062 0.45991,4.57005 5.48092,7.15035 6.79061,11.07942 2.02231,6.06694 7.30257,24.2485 5.00361,30.37906 -0.44398,1.18395 -2.38392,2.89056 -3.21661,3.93141 -7.13821,8.92277 -16.67387,11.79422 -27.87725,11.79422 3.47533,17.79967 0.15114,30.37907 -21.44404,30.37907 -8.13213,0 -14.91481,-1.34126 -21.80145,-6.07582 -5.55127,-3.8165 -7.1602,-9.3107 -10.72202,-14.65343 -3.01554,2.77824 -4.71015,6.56237 -8.22022,9.29242 -3.57204,2.77826 -3.15578,1.55466 -6.790611,3.57401 -11.175,6.20833 -23.752149,10.10407 -36.097473,3.93141 -2.12469,-1.06235 -4.261692,-3.64302 -6.075812,-5.00361 -1.392721,-1.04454 -2.887214,-1.65032 -3.931408,-3.21661 -4.447022,-6.67053 -3.931408,-13.38619 -3.931408,-21.08664 -3.216606,0.11913 -6.431838,0.28426 -9.649819,0.3574 -1.93145,0.0439 -10.936147,1.28685 -12.866426,0 -5.558453,-3.70564 -11.840475,-9.48864 -15.368231,-15.36823 -5.1067572,-8.51126 -7.632454,-26.25388 3.574007,-30.73646 -2.427063,-6.4974 -14.62962529,-23.08806 -9.2924189,-31.09387 1.7162659,-2.5744 5.7785059,-5.11325 8.2202169,-7.14801 C 7.5049503,119.30958 2.2891797,100.60086 7.1480144,94.353791 8.5304689,92.576349 19.65704,80.594075 19.65704,87.563177" />
    <path
       style="opacity:0.93;fill:#000000;fill-opacity:0;fill-rule:evenodd;stroke:#000000;stroke-width:1.35081"
       d="m 513.30623,904.3567 c -35.11487,-9.40832 -64.01762,-34.2198 -79.02214,-67.83632 -2.22883,-4.99354 -4.35635,-9.07742 -4.72782,-9.0753 -0.37147,0.003 -2.7802,3.67845 -5.35273,8.16962 -5.91299,10.32298 -21.3316,25.04625 -33.15114,31.65613 -14.20622,7.94456 -47.54553,22.93641 -62.8647,28.26866 -40.35119,14.04533 -72.10564,11.27492 -96.92498,-8.45622 -38.46264,-30.57742 -45.76634,-39.15854 -51.13045,-60.07311 -2.76503,-10.78083 -1.85379,-27.21274 2.0776,-37.46412 1.56704,-4.08619 2.84948,-7.66654 2.84986,-7.95635 7.4e-4,-0.57903 -35.16688,0.63606 -59.0334,2.03968 C 97.896795,785.28372 83.247108,779.9484 64.792628,761.3285 51.139016,747.55251 43.884101,734.34214 38.336329,713.15465 c -8.204524,-31.33388 -2.863825,-70.82167 13.101577,-96.86976 2.169825,-3.54015 3.945135,-6.67911 3.945135,-6.97548 0,-0.29636 -3.927686,-2.73533 -8.72819,-5.41993 -16.170549,-9.04308 -29.867046,-25.63682 -36.089182,-43.7232 -4.4196419,-12.8469 -4.433179,-34.90767 -0.02927,-47.70473 6.235486,-18.11935 16.875144,-31.93042 32.351691,-41.99488 4.643395,-3.01963 8.442536,-5.64615 8.442536,-5.83673 0,-0.19057 -3.031863,-2.29203 -6.737475,-4.66992 -3.70561,-2.37788 -9.819928,-7.69612 -13.587371,-11.8183 -31.60378295,-34.57957 -21.173512,-88.74917 21.000249,-109.06475 11.889649,-5.72739 18.880487,-7.19041 20.031064,-4.19205 1.279128,3.33335 3.34399,2.51801 3.12744,-1.23491 -0.107146,-1.85684 -0.690346,-3.3765 -1.296008,-3.37701 C 72.442438,330.272 61.472773,306.71956 54.04983,287.72165 37.480252,245.31432 34.44667,219.16959 43.204509,194.25197 c 6.76713,-19.2537 24.110353,-38.20666 43.472864,-47.50785 17.310997,-8.31572 25.970877,-10.20307 46.377007,-10.10753 21.37068,0.10007 32.8504,2.83661 52.87327,12.60399 29.68674,14.48153 56.47679,40.78063 71.23306,69.92767 1.97469,3.90046 4.253,7.09173 5.0629,7.09173 0.84959,0 1.08648,-1.00008 0.55995,-2.36391 -6.20857,-16.08167 -6.30337,-46.58777 -0.20045,-64.50098 5.5079,-16.16663 13.19549,-28.18069 26.50457,-41.421 10.08658,-10.03444 13.76536,-12.67741 25.79881,-18.534731 18.0338,-8.778018 28.88919,-11.343173 47.80489,-11.296419 54.38211,0.134417 103.05614,41.02431 118.61865,99.64869 l 3.06585,11.54909 8.2518,-6.62251 c 33.48965,-26.87722 77.76695,-41.20935 113.14866,-36.62511 43.72145,5.66479 74.17094,29.54884 89.41632,70.13664 6.95375,18.51296 8.97554,33.20346 8.18398,59.4657 -0.36947,12.25857 -1.08292,23.54901 -1.58545,25.08989 -0.78659,2.41183 0.64987,3.70794 10.32583,9.31695 41.9762,24.33297 70.22376,63.16333 78.88689,108.44141 2.73772,14.3088 2.44094,40.18746 -0.6316,55.0741 -8.79735,42.62359 -36.1192,75.64517 -73.21684,88.4909 -5.99379,2.07546 -11.19078,4.06653 -11.54885,4.42461 -0.35807,0.35807 2.0142,4.81827 5.2717,9.91156 18.81637,29.42043 36.22472,60.93808 41.50395,75.14251 8.94015,24.05457 9.00135,48.00343 0.16904,66.15129 -5.72968,11.77289 -20.86079,27.12914 -37.975,38.54004 -21.22415,14.15121 -44.69233,22.13886 -74.30219,25.28955 l -7.43728,0.79138 0.48581,15.30386 c 0.87224,27.47728 -7.15043,49.32764 -25.12796,68.43786 -11.76633,12.50768 -24.97716,21.17924 -40.18082,26.37456 -14.89355,5.08937 -39.56635,5.93759 -54.70764,1.88079 z"
       id="path918"
       transform="scale(0.26458333)" />
    <path
       style="opacity:0.93;fill:#CBB6F2;fill-opacity:1;fill-rule:evenodd;stroke:#000000;stroke-width:1.35081"
       d="m 516.68325,903.4935 c -5.2006,-1.10087 -15.53427,-4.9047 -22.9637,-8.45296 -24.94471,-11.91344 -42.54085,-29.32711 -55.88508,-55.30558 -3.87532,-7.54444 -7.5558,-13.71717 -8.17885,-13.71717 -0.62306,0 -3.71812,3.96805 -6.87791,8.81789 -9.62563,14.77399 -23.17044,26.20161 -42.92883,36.21863 -64.51377,32.70692 -101.6721,39.33736 -133.27206,23.78075 -17.46854,-8.59973 -53.75227,-41.36596 -59.89192,-54.08573 -7.74659,-16.0489 -8.73364,-33.61823 -2.8619,-50.94118 1.58801,-4.68498 2.51063,-8.89479 2.05029,-9.35513 -0.46034,-0.46036 -17.69975,-0.10942 -38.3098,0.77999 -41.88992,1.8076 -49.353289,1.07777 -62.841479,-6.14511 C 75.715493,770.26493 57.425866,751.97021 51.434249,741.79085 40.367033,722.9884 35.834584,702.60971 36.807972,676.02858 37.6237,653.7528 40.705904,641.11187 49.616999,623.49535 c 3.542795,-7.00382 6.637238,-13.21392 6.87654,-13.80024 0.239302,-0.58631 -3.103943,-3.31524 -7.429433,-6.0643 C 36.603385,595.71142 29.932218,589.73606 23.52161,580.75239 15.295932,569.22514 10.958599,558.76757 9.3039886,546.47285 5.2771598,516.55118 19.026601,488.17228 46.590512,469.51328 l 6.74174,-4.56372 -4.628858,-3.51319 C 35.846533,451.67835 26.809311,441.64063 21.712315,431.45715 11.847202,411.74726 11.54065,392.25548 20.790151,372.82242 c 7.969953,-16.74475 21.574513,-28.90714 40.073234,-35.82519 7.776455,-2.90821 8.519608,-2.9733 10.049985,-0.88039 0.908918,1.24301 2.280359,2.26003 3.047647,2.26003 3.808429,0 2.483041,-5.50472 -4.993687,-20.74023 C 47.673111,274.24491 37.267001,235.71799 40.563362,212.47563 43.43412,192.23415 50.667518,178.49113 66.354154,163.47467 77.832192,152.487 92.897773,144.12223 108.0311,140.33464 c 13.74264,-3.43953 46.03547,-2.02873 59.06402,2.58036 37.72305,13.34525 66.26894,38.27426 89.92462,78.53084 2.05899,3.50394 4.49044,6.1071 5.40322,5.78479 1.88584,-0.6659 1.90523,-0.37972 -1.07293,-15.82951 -3.02476,-15.69161 -1.94918,-36.26984 2.65446,-50.7855 4.89748,-15.44214 11.94354,-26.54855 25.80525,-40.67575 10.92956,-11.13889 13.70948,-13.16498 26.34072,-19.19794 19.60101,-9.361889 28.94774,-11.34046 49.91793,-10.566926 14.4655,0.533593 18.77109,1.254909 30.04668,5.033724 39.32,13.177392 70.17795,46.883092 82.87853,90.527082 2.0539,7.05796 4.16158,13.33979 4.68373,13.95962 0.52216,0.61982 6.45455,-3.05266 13.1831,-8.16109 28.84047,-21.89616 63.31522,-34.42575 94.79254,-34.45166 41.96156,-0.0345 75.83977,19.33619 94.99962,54.31844 12.44931,22.73011 17.28399,49.46708 14.89972,82.39916 -0.72614,10.02973 -1.06784,18.99373 -0.75933,19.92 0.30851,0.92626 5.75811,4.82334 12.11019,8.66019 48.76458,29.4552 78.66907,79.21201 78.66907,130.8941 0,54.19503 -27.93898,99.13814 -72.26811,116.25166 -17.16369,6.62614 -16.29462,5.60511 -11.71467,13.76315 2.16534,3.85704 8.90121,15.21893 14.9686,25.24867 30.91149,51.09842 39.34203,77.397 33.38028,104.1278 -2.94207,13.1914 -8.22391,22.0856 -20.26802,34.12972 -23.1156,23.11558 -52.23122,37.06746 -88.28643,42.30585 l -15.88214,2.30749 -0.0376,17.64214 c -0.044,20.71801 -1.65436,28.5075 -9.02957,43.67824 -9.28239,19.09381 -30.08214,38.45161 -49.72021,46.27333 -16.13253,6.4255 -38.44411,8.21376 -56.03121,4.49088 z"
       id="path957"
       transform="scale(0.26458333)" />
  </g>
</svg>
