<?xml version="1.0" encoding="UTF-8" standalone="no"?>
<!-- Created with Inkscape (http://www.inkscape.org/) -->

<svg
   width="210mm"
   height="297mm"
   viewBox="0 0 210 297"
   version="1.1"
   id="svg5"
   inkscape:version="1.1.2 (b8e25be833, 2022-02-05)"
   sodipodi:docname="рисунок-1.svg"
   xmlns:inkscape="http://www.inkscape.org/namespaces/inkscape"
   xmlns:sodipodi="http://sodipodi.sourceforge.net/DTD/sodipodi-0.dtd"
   xmlns="http://www.w3.org/2000/svg"
   xmlns:svg="http://www.w3.org/2000/svg">
  <sodipodi:namedview
     id="namedview7"
     pagecolor="#ffffff"
     bordercolor="#111111"
     borderopacity="1"
     inkscape:pageshadow="0"
     inkscape:pageopacity="0"
     inkscape:pagecheckerboard="1"
     inkscape:document-units="mm"
     showgrid="false"
     inkscape:zoom="0.74029882"
     inkscape:cx="396.46153"
     inkscape:cy="561.93525"
     inkscape:window-width="1920"
     inkscape:window-height="1017"
     inkscape:window-x="-8"
     inkscape:window-y="-8"
     inkscape:window-maximized="1"
     inkscape:current-layer="layer1" />
  <defs
     id="defs2">
    <inkscape:path-effect
       effect="spiro"
       id="path-effect1085"
       is_visible="true"
       lpeversion="1" />
    <inkscape:perspective
       sodipodi:type="inkscape:persp3d"
       inkscape:vp_x="0 : 148.5 : 1"
       inkscape:vp_y="0 : 1000 : 0"
       inkscape:vp_z="210 : 148.5 : 1"
       inkscape:persp3d-origin="105 : 99 : 1"
       id="perspective944" />
  </defs>
  <g
     inkscape:label="Слой 1"
     inkscape:groupmode="layer"
     id="layer1">
    <path
       style="fill:#ffa4bc;fill-opacity:1;stroke:#ffa4bc;stroke-width:0.264583px;stroke-linecap:butt;stroke-linejoin:miter;stroke-opacity:1"
       d="M 51.465703,77.555957 V 216.22744 c 15.469046,-17.48492 31.69123,-34.30351 48.606497,-50.3935 3.47982,-3.31004 6.98985,-6.59015 10.36463,-10.00722 7.80376,-7.90156 14.87292,-16.52833 21.08664,-25.73285 2.59268,-2.15953 4.98848,-4.55534 7.14801,-7.14802 3.15721,-3.79048 5.79915,-7.98607 8.93502,-11.79422 4.29128,-5.21125 9.47235,-9.65459 13.58123,-15.010833 1.24764,-1.626399 2.39071,-3.329819 3.57401,-5.00361 7.27445,-10.289757 16.10165,-19.479717 26.09025,-27.162458 -11.99155,0.836911 -23.93312,2.389315 -35.74007,4.64621 -5.94599,1.136574 -11.86478,2.452747 -17.87004,3.216606 -6.05679,0.770413 -12.17602,0.975528 -18.22744,1.787004 -9.10781,1.221327 -18.01132,3.809222 -27.162454,4.646209 -4.15585,0.380105 -8.336009,0.39619 -12.509025,0.357401 -9.300205,-0.08645 -18.597888,-0.444051 -27.877258,-1.072202 z"
       id="path1083"
       inkscape:path-effect="#path-effect1085"
       inkscape:original-d="m 51.465703,77.555957 c -0.294129,46.178583 0,92.442353 0,138.671483 18.004505,-14.085 33.997529,-32.86274 48.606497,-50.3935 3.08041,-3.69649 7.30376,-6.33419 10.36463,-10.00722 7.04583,-8.455 13.94689,-17.2544 21.08664,-25.73285 1.70016,-3.05603 4.92911,-4.61213 7.14801,-7.14802 3.17631,-3.63007 5.71938,-8.1192 8.93502,-11.79422 4.39427,-5.02202 9.37941,-9.87528 13.58123,-15.010833 4.84769,-5.92496 -2.48105,1.05144 3.57401,-5.00361 5.10765,-5.10766 26.09025,-23.547356 26.09025,-27.162458 -17.94973,0.664806 -7.86328,-0.113243 -35.74007,4.64621 -5.96608,1.018599 -11.88142,2.340223 -17.87004,3.216606 -6.0406,0.883991 -12.20556,0.783358 -18.22744,1.787004 -8.95981,1.493302 -18.01467,3.530626 -27.162454,4.646209 -3.962504,0.483233 -8.619595,-0.420485 -12.509025,0.357401 -6.310578,1.262116 -21.497993,1.054216 -27.877258,-1.072202 z" />
  </g>
</svg>
