<?xml version="1.0" encoding="UTF-8" standalone="no"?>
<!-- Created with Inkscape (http://www.inkscape.org/) -->

<svg
   width="210mm"
   height="297mm"
   viewBox="0 0 210 297"
   version="1.1"
   id="svg5"
   inkscape:version="1.1.2 (b8e25be833, 2022-02-05)"
   sodipodi:docname="рисунок-3.svg"
   xmlns:inkscape="http://www.inkscape.org/namespaces/inkscape"
   xmlns:sodipodi="http://sodipodi.sourceforge.net/DTD/sodipodi-0.dtd"
   xmlns="http://www.w3.org/2000/svg"
   xmlns:svg="http://www.w3.org/2000/svg">
  <sodipodi:namedview
     id="namedview7"
     pagecolor="#ffffff"
     bordercolor="#111111"
     borderopacity="1"
     inkscape:pageshadow="0"
     inkscape:pageopacity="0"
     inkscape:pagecheckerboard="1"
     inkscape:document-units="mm"
     showgrid="false"
     inkscape:zoom="0.74029882"
     inkscape:cx="396.46153"
     inkscape:cy="561.93525"
     inkscape:window-width="1920"
     inkscape:window-height="1017"
     inkscape:window-x="-8"
     inkscape:window-y="-8"
     inkscape:window-maximized="1"
     inkscape:current-layer="layer1" />
  <defs
     id="defs2">
    <inkscape:path-effect
       effect="spiro"
       id="path-effect923"
       is_visible="true"
       lpeversion="1" />
    <inkscape:path-effect
       effect="spiro"
       id="path-effect915"
       is_visible="true"
       lpeversion="1" />
    <inkscape:path-effect
       effect="spiro"
       id="path-effect911"
       is_visible="true"
       lpeversion="1" />
    <inkscape:path-effect
       effect="spiro"
       id="path-effect907"
       is_visible="true"
       lpeversion="1" />
  </defs>
  <g
     inkscape:label="Слой 1"
     inkscape:groupmode="layer"
     id="layer1">
    <path
       style="fill:none;stroke:#000000;stroke-width:0.264583px;stroke-linecap:butt;stroke-linejoin:miter;stroke-opacity:1"
       d="m 24.66065,167.26354 c 7.050735,-12.57227 19.089499,-22.25563 32.880866,-26.44766 7.84342,-2.38409 16.107502,-3.03533 24.303249,-3.2166 9.456162,-0.20915 19.026915,0.20392 28.137305,2.74627 9.11039,2.54235 17.79534,7.36601 23.6858,14.76636 3.23231,4.06084 5.54393,8.77593 7.50541,13.58123 5.67812,13.91041 8.60987,28.93566 8.57762,43.96029"
       id="path905"
       inkscape:path-effect="#path-effect907"
       inkscape:original-d="m 24.66065,167.26354 c 8.956363,-11.11975 18.927752,-21.41539 32.880866,-26.44766 7.382468,-2.66253 16.495083,-3.2166 24.303249,-3.2166 19.746945,0 38.031115,2.34145 51.823105,17.51263 3.64172,4.00589 5.41072,8.79335 7.50541,13.58123 6.40812,14.64713 8.57762,28.04648 8.57762,43.96029" />
    <path
       style="fill:none;stroke:#000000;stroke-width:0.264583px;stroke-linecap:butt;stroke-linejoin:miter;stroke-opacity:1"
       d="m 3.5740072,167.26354 c 2.8435613,-20.44275 12.8516888,-39.81746 27.8772568,-53.96751 9.95608,-9.37596 22.029686,-16.469325 35.025269,-20.729245 12.444281,-4.079204 26.16018,-5.524589 38.599277,-1.429602 7.46434,2.457281 14.1498,6.782268 20.72924,11.079417 17.67349,11.54286 35.82999,23.79311 46.8195,41.81589 9.97649,16.36143 13.06377,35.9426 14.65343,55.03971 0.82138,9.86744 1.2983,19.76356 1.4296,29.66426"
       id="path909"
       inkscape:path-effect="#path-effect911"
       inkscape:original-d="M 3.5740072,167.26354 C 0.32575534,148.44481 18.872595,125.8747 31.451264,113.29603 c 6.115584,-6.11559 26.637718,-17.933393 35.025269,-20.729245 10.421199,-3.473733 27.809745,-2.836934 38.599277,-1.429602 7.74718,1.010502 14.03667,7.733133 20.72924,11.079417 17.7601,8.88006 36.85148,24.09496 46.8195,41.81589 9.12283,16.21837 12.99634,36.8118 14.65343,55.03971 0.47505,5.22557 -0.2167,26.37167 1.4296,29.66426" />
    <path
       style="fill:none;stroke:#000000;stroke-width:0.264583px;stroke-linecap:butt;stroke-linejoin:miter;stroke-opacity:1"
       d="m 149.7509,212.65343 38.95668,16.08303"
       id="path913"
       inkscape:path-effect="#path-effect915"
       inkscape:original-d="m 149.7509,212.65343 c 5.18698,3.38462 33.57098,18.77589 38.95668,16.08303" />
    <path
       style="fill:none;stroke:#000000;stroke-width:0.264583px;stroke-linecap:butt;stroke-linejoin:miter;stroke-opacity:1"
       d="M 3.5740072,167.26354 H 24.66065"
       id="path921"
       inkscape:path-effect="#path-effect923"
       inkscape:original-d="m 3.5740072,167.26354 c 6.7501188,-3.41989 14.4253348,2.22042 21.0866428,0" />
    <path
       style="opacity:0.93;fill:#ffcc1a;fill-rule:evenodd;stroke:#ffcc1a;stroke-width:1.35081;fill-opacity:1;stroke-opacity:1"
       d="m 652.43924,838.04571 c -32.31803,-13.33229 -64.59987,-26.68964 -71.73742,-29.68302 l -12.97736,-5.44249 -0.95349,-18.50663 c -3.35523,-65.1222 -21.0085,-132.17464 -47.06552,-178.76895 -23.14175,-41.38133 -66.37089,-69.83004 -122.56852,-80.66129 -22.49023,-4.33466 -39.73375,-5.59951 -76.12595,-5.584 -36.16382,0.0154 -61.79555,2.04625 -83.78721,6.63867 -57.32477,11.97084 -106.30843,45.38652 -138.262005,94.3196 l -7.277192,11.14415 H 53.210509 14.736446 l 0.862336,-5.06552 c 12.55478,-73.74913 46.558998,-139.83197 98.624208,-191.6635 39.97784,-39.79841 94.32103,-71.49723 149.85956,-87.41428 28.81186,-8.25732 39.64583,-9.66653 73.61892,-9.57587 29.5917,0.079 30.80275,0.19121 45.9274,4.25634 31.05076,8.34567 50.43062,18.52509 107.38907,56.40693 57.7599,38.41486 81.09996,56.43954 109.8996,84.87147 75.61367,74.64823 101.35177,152.85984 109.66511,333.24483 0.83888,18.20211 1.32081,35.93634 1.07093,39.40941 l -0.45428,6.31466 z"
       id="path1042"
       transform="scale(0.26458333)" />
    <path
       style="opacity:0.93;fill:#ffcc1a;fill-opacity:1;fill-rule:evenodd;stroke:#ffcc1a;stroke-width:1.35081;stroke-opacity:1"
       d="m 639.35444,831.85854 -70.45191,-29.09719 -0.8113,-6.26996 c -0.68278,-5.27668 -2.13405,-25.68076 -2.31949,-32.61067 -0.16721,-6.24819 -5.52181,-40.81789 -8.49952,-54.87339 -10.68124,-50.41809 -30.67958,-98.95843 -51.10957,-124.05407 -16.64701,-20.44873 -40.00635,-37.24809 -66.66519,-47.94365 -13.90563,-5.57897 -34.56207,-11.53091 -45.06214,-12.9842 -3.34325,-0.46274 -7.59829,-1.11816 -9.45564,-1.4565 -10.59897,-1.93073 -18.00864,-2.29839 -56.50235,-2.80366 -37.07249,-0.48662 -54.04208,0.18508 -73.17502,2.89648 -1.85736,0.26321 -6.41633,0.87824 -10.13104,1.36673 -10.53259,1.38503 -31.07768,7.11738 -44.50814,12.41833 -43.27343,17.07989 -80.43741,48.30382 -105.498379,88.63621 l -3.985354,6.41391 -38.117871,0.003 c -29.87955,0.002 -38.00241,-0.3628 -37.583644,-1.68637 0.293825,-0.92868 1.854235,-8.375 3.467578,-16.54737 17.003075,-86.12895 69.506234,-166.01325 141.80044,-215.75139 35.07605,-24.13219 73.77175,-41.86177 114.8185,-52.60749 20.18286,-5.28372 26.82553,-5.87369 64.83868,-5.75864 30.36181,0.0919 32.30161,0.25615 44.55197,3.77242 29.39905,8.43852 54.30506,21.82086 110.33403,59.28403 55.86365,37.35261 80.84751,57.15379 110.61049,87.66533 18.81599,19.28921 27.94908,30.47995 40.46307,49.57918 36.73126,56.0604 54.65047,127.7194 62.20195,248.74592 1.63203,26.15642 1.96897,35.35901 1.95002,53.25886 -0.0108,10.34733 -0.17479,18.96819 -0.36408,19.15748 -0.18929,0.18929 -32.04753,-12.74957 -70.79609,-28.75303 z"
       id="path1348"
       transform="scale(0.26458333)" />
    <path
       style="opacity:0.93;fill:#ffcc1a;fill-opacity:1;fill-rule:evenodd;stroke:#ffcc1a;stroke-width:1.35081;stroke-opacity:1"
       d="m 701.06825,857.33074 c -4.82913,-1.95068 -36.4227,-14.89906 -70.20792,-28.77419 -58.02226,-23.82894 -61.482,-25.44106 -62.40731,-29.0797 -0.5388,-2.1187 -1.58111,-12.97013 -2.31623,-24.11428 -3.01941,-45.77286 -14.30561,-95.73811 -31.0525,-137.47283 -24.33802,-60.65254 -61.29241,-93.02525 -125.79011,-110.1944 -34.13228,-9.08592 -113.75267,-10.88004 -161.13055,-3.63077 -45.72031,6.99562 -87.30413,28.06799 -120.46804,61.04649 -11.16046,11.09806 -25.7758,29.40386 -32.994018,41.32517 l -3.067114,5.06552 h -37.48726 c -20.617992,0 -37.822257,-0.335 -38.2317,-0.74444 -0.982343,-0.98235 5.965772,-33.18342 10.448506,-48.42365 16.815403,-57.16839 55.114582,-117.89278 99.065436,-157.07095 39.56584,-35.26933 80.55121,-58.56544 132.3744,-75.24172 31.57441,-10.16038 36.53879,-10.85628 77.87142,-10.91601 34.57066,-0.05 37.07025,0.11726 47.95361,3.20797 29.74592,8.44739 52.36326,20.47114 108.06447,57.44884 60.25437,40.00035 83.60609,58.50827 116.2064,92.10194 41.91063,43.18768 65.36706,86.31365 81.05262,149.01977 11.76528,47.03397 20.73217,127.29365 21.40074,191.55062 0.16425,15.78755 0.11792,28.64583 -0.10294,28.57396 -0.22089,-0.0719 -4.35274,-1.72666 -9.18187,-3.67734 z"
       id="path1387"
       transform="scale(0.26458333)" />
    <path
       style="opacity:0.93;fill:#ffcc1a;fill-opacity:1;fill-rule:evenodd;stroke:#ffcc1a;stroke-width:1.35081;stroke-opacity:1"
       d="m 697.01583,856.19596 c -112.93369,-46.2515 -127.07819,-52.27874 -128.3607,-54.69698 -0.53144,-1.00204 -1.67765,-11.24377 -2.54715,-22.75939 -5.55211,-73.53147 -27.08335,-145.96323 -55.2399,-185.82872 -26.93623,-38.13769 -72.30152,-62.39644 -131.29163,-70.20719 -20.85998,-2.76203 -90.28759,-3.23622 -112.79229,-0.77036 -32.20121,3.52829 -55.98064,10.09885 -81.04835,22.39468 -34.96975,17.15283 -62.67818,41.39972 -85.66786,74.96554 l -8.361559,12.20821 H 53.282628 c -21.13307,0 -38.423763,-0.34261 -38.423763,-0.76136 0,-3.06331 7.54058,-36.10497 10.866445,-47.61509 21.604361,-74.76815 74.2261,-145.74917 141.09922,-190.32756 31.52716,-21.01636 71.03701,-38.52543 111.25372,-49.30288 l 15.72203,-4.21325 41.19958,-0.11467 41.19958,-0.11466 16.36134,5.63231 c 29.36931,10.11025 46.61166,19.70005 103.18498,57.38914 54.50277,36.3097 76.40932,53.47898 106.08092,83.14108 67.33374,67.31217 92.77663,133.62238 105.36776,274.6135 2.48089,27.78002 4.31311,101.36751 2.5195,101.19022 -0.66895,-0.0661 -6.38309,-2.23629 -12.69811,-4.82257 z"
       id="path1426"
       transform="scale(0.26458333)" />
    <path
       style="opacity:0.93;fill:#ffcc1a;fill-opacity:1;fill-rule:evenodd;stroke:#ffcc1a;stroke-width:1.35081;stroke-opacity:1"
       d="M 687.56019,852.83976 C 602.31805,817.62603 569.9841,803.93463 568.89017,802.59043 c -0.6994,-0.8594 -1.96691,-10.37655 -2.8167,-21.14923 C 558.98059,691.52533 533.4868,615.52789 497.68614,577.57729 472.62339,551.00947 435.49709,532.50417 391.7337,524.7662 c -14.2765,-2.52429 -23.61704,-3.09251 -60.46059,-3.67804 -60.76584,-0.96573 -86.61204,1.77328 -119.19659,12.63165 -45.78324,15.25667 -86.38544,46.77494 -113.044574,87.75311 l -6.501743,9.99394 -38.989045,0.0174 -38.989045,0.0175 0.938633,-6.25924 C 17.003609,615.154 25.203245,583.16105 29.46575,570.71548 38.322286,544.85637 47.140398,526.04899 61.398434,502.60905 107.1878,427.33218 177.3755,373.5277 264.08255,347.23546 c 26.86348,-8.14583 35.11828,-9.0714 76.70009,-8.6 l 36.7676,0.41682 15.53427,5.32422 c 26.01543,8.91655 52.8187,23.78163 101.98584,56.56129 50.22239,33.48318 77.22233,54.59732 104.8269,81.97531 68.14924,67.58988 93.06779,129.6829 106.52103,265.43336 2.09107,21.10006 4.0974,60.14645 4.23393,82.39916 0.17832,29.0672 0.0979,30.40704 -1.81683,30.28929 -0.92867,-0.0571 -10.50251,-3.74493 -21.27519,-8.19515 z"
       id="path1465"
       transform="scale(0.26458333)" />
    <path
       style="opacity:0.93;fill:#ffcc1a;fill-opacity:1;fill-rule:evenodd;stroke:#ffcc1a;stroke-width:1.35081;stroke-opacity:1"
       d="m 705.12067,860.15743 c -13.80694,-5.23354 -132.06454,-54.77006 -134.39172,-56.29489 -2.69771,-1.76761 -3.27677,-3.57784 -4.02433,-12.58072 -6.07785,-73.19482 -17.43858,-121.73169 -39.15679,-167.2907 -18.58981,-38.9965 -39.55192,-61.22291 -74.54107,-79.03698 -24.38598,-12.41566 -56.25455,-20.78516 -86.93837,-22.83224 -26.57088,-1.77267 -95.50847,-0.64103 -111.74066,1.83428 -36.50516,5.56682 -69.00963,18.1451 -97.51847,37.73683 -19.68805,13.52994 -49.16129,44.87848 -60.90124,64.7762 l -2.969269,5.03254 H 53.898808 c -37.402359,0 -39.039943,-0.10726 -39.039943,-2.55681 0,-3.93426 7.674181,-36.83265 11.645296,-49.92212 11.535034,-38.02146 35.501259,-82.84043 61.701479,-115.38723 46.97357,-58.35217 111.15345,-99.14295 190.06037,-120.79657 12.25652,-3.36343 14.71264,-3.54757 54.70764,-4.10157 l 41.87498,-0.58003 14.85887,4.93675 c 29.34644,9.75016 53.10909,22.80185 106.69491,58.60246 53.979,36.06328 81.13023,57.59194 109.47115,86.80145 26.27947,27.08488 42.73978,49.52123 57.14415,77.8907 27.99697,55.14018 42.69219,131.29043 47.58574,246.58821 1.92492,45.3528 1.40895,49.79275 -5.48278,47.18044 z"
       id="path1504"
       transform="scale(0.26458333)" />
    <path
       style="opacity:0.93;fill:#ffcc1a;fill-opacity:1;fill-rule:evenodd;stroke:#ffcc1a;stroke-width:1.35081;stroke-opacity:1"
       d="m 703.09446,859.73268 c -3.04443,-1.37844 -124.94372,-52.16226 -130.65436,-54.43122 -2.02324,-0.80388 -3.99282,-2.28042 -4.37686,-3.2812 -0.38403,-1.00079 -1.63373,-11.66321 -2.77709,-23.69429 -7.49248,-78.83993 -25.97559,-141.78924 -53.42256,-181.94517 -27.53432,-40.28372 -75.04664,-66.11004 -134.2655,-72.98278 -16.90642,-1.96211 -98.43898,-2.02157 -114.91893,-0.0838 -69.67461,8.19252 -126.01592,42.23723 -163.709148,98.9226 l -6.160776,9.26488 H 53.660025 14.510814 l 0.873653,-6.58592 c 1.414385,-10.66216 9.718143,-42.94101 14.985562,-58.25276 10.812879,-31.43173 35.699064,-75.83418 58.295523,-104.01206 11.805608,-14.72164 35.759588,-38.67391 50.467458,-50.46384 37.71463,-30.23233 85.70994,-54.56983 135.14733,-68.53062 l 15.46752,-4.36793 43.22579,-0.54466 43.22579,-0.54467 15.97584,5.53283 c 28.39925,9.83535 53.26195,23.63084 105.03851,58.28236 54.21444,36.2831 77.97771,55.1301 107.36429,85.15221 32.05296,32.74616 49.73084,58.04424 65.3883,93.57449 18.98025,43.07042 30.07316,94.49191 37.17661,172.3331 2.60496,28.54579 5.51169,99.49335 4.27522,104.34975 -0.98804,3.88066 -3.38407,4.54522 -8.32375,2.30865 z"
       id="path1543"
       transform="scale(0.26458333)" />
    <path
       style="opacity:0.93;fill:#ffcc1a;fill-opacity:1;fill-rule:evenodd;stroke:#ffcc1a;stroke-width:1.35081;stroke-opacity:1"
       d="m 703.76986,860.17034 c -19.68123,-7.82015 -134.50937,-56.01004 -135.2427,-56.75726 -0.55835,-0.56891 -2.00065,-10.76019 -3.20512,-22.64728 -8.36812,-82.58637 -24.8285,-139.59058 -52.7013,-182.51063 -24.68854,-38.01678 -66.8071,-63.03318 -122.91324,-73.00456 -15.92157,-2.82964 -98.06082,-4.12971 -122.1324,-1.93307 -30.92904,2.82242 -56.10576,9.85162 -83.1901,23.22625 -34.6501,17.11069 -61.61808,41.59183 -88.112244,79.98698 l -4.362283,6.32178 -25.355446,-0.007 c -13.945497,-0.004 -31.354466,-0.40422 -38.6866,-0.88971 l -13.331152,-0.8827 0.819233,-6.87743 c 1.036295,-8.6999 8.94718,-40.14467 13.643488,-54.23138 C 40.14251,536.54228 63.952699,493.30826 87.431312,463.86627 133.78857,405.73466 202.4382,362.26823 279.3704,342.33748 l 15.28786,-3.96061 h 41.79402 41.79403 l 17.0611,6.28308 c 27.84341,10.25388 46.69602,20.67606 95.03512,52.53774 30.43538,20.06082 55.67182,37.97584 72.86747,51.72764 16.70969,13.36315 50.11951,45.98853 63.85395,62.3547 47.00007,56.00595 69.42388,123.01464 80.01005,239.09264 2.58173,28.30892 5.14391,83.62732 4.56725,98.60882 -0.39764,10.33048 -0.71286,11.50753 -3.14357,11.7379 -1.48588,0.14083 -3.6134,-0.10617 -4.72782,-0.54905 z"
       id="path1582"
       transform="scale(0.26458333)" />
    <path
       style="opacity:0.93;fill:#ffcc1a;fill-opacity:1;fill-rule:evenodd;stroke:#ffcc1a;stroke-width:1.35081;stroke-opacity:1"
       d="m 642.3082,834.99536 c -34.17539,-14.32808 -64.97361,-27.3197 -68.44048,-28.87026 -6.26664,-2.80275 -6.30826,-2.86521 -7.13887,-10.71223 -10.67574,-100.85739 -26.2752,-156.04237 -56.63424,-200.35054 -27.84242,-40.63526 -80.31138,-67.19916 -141.26872,-71.52132 -24.19095,-1.71526 -76.45083,-1.79852 -97.60907,-0.15552 -72.56385,5.6348 -132.40321,40.41483 -172.607991,100.32377 l -6.078626,9.05773 -32.419341,0.0311 c -17.830638,0.017 -35.507241,-0.34004 -39.281339,-0.79357 l -6.861997,-0.82464 1.167912,-7.60618 c 1.895527,-12.34488 11.48564,-47.86903 16.632328,-61.61025 12.590808,-33.61638 32.770994,-69.31729 55.720471,-98.57547 11.182774,-14.25686 43.792133,-46.01569 58.793893,-57.26042 37.86223,-28.38 79.05713,-48.64733 126.51244,-62.24238 l 19.51846,-5.59167 42.98091,-0.0146 42.98093,-0.0146 13.82115,4.95187 c 30.18109,10.81333 51.00932,22.33785 102.97433,56.97699 54.40841,36.26787 77.73132,54.57566 107.47809,84.36712 59.03731,59.12602 84.48496,114.89834 99.09586,217.18334 6.01534,42.11089 10.94254,113.40335 9.98928,144.53623 -0.42934,14.02202 -0.47273,14.18679 -3.8113,14.47501 -1.88629,0.16285 -30.80622,-11.20819 -65.51408,-25.75953 z"
       id="path1621"
       transform="scale(0.26458333)" />
    <path
       style="opacity:0.93;fill:#ffcc1a;fill-opacity:1;fill-rule:evenodd;stroke:#ffcc1a;stroke-width:1.35081;stroke-opacity:1"
       d="m 664.31851,844.37437 c -64.28589,-26.69463 -95.57732,-40.14345 -96.36417,-41.4166 -0.40335,-0.65263 -2.22226,-14.11895 -4.04204,-29.92516 -9.11897,-79.20568 -25.14732,-133.35854 -51.38667,-173.61324 -23.76924,-36.46524 -63.92461,-61.52565 -115.23447,-71.91621 -28.34159,-5.73935 -109.31422,-6.81135 -143.33965,-1.89769 -27.012,3.90084 -47.68166,10.58694 -73.11306,23.65017 -31.25215,16.05312 -57.87007,39.94449 -79.96882,71.77736 l -8.205271,11.81955 H 57.307477 c -19.446285,0 -37.207494,-0.37012 -39.469354,-0.82249 -3.851064,-0.77021 -4.06868,-1.13513 -3.423527,-5.74092 1.423417,-10.16187 10.445365,-44.65612 15.579522,-59.56627 15.810095,-45.91426 43.85207,-91.12373 78.678532,-126.84609 45.27514,-46.43983 100.42123,-78.39229 168.223,-97.47092 l 15.5147,-4.36566 43.24535,-0.0879 43.24535,-0.0879 13.50806,5.05535 c 29.34399,10.9819 50.95589,22.81891 96.58262,52.89905 54.78902,36.12054 82.95478,57.99548 112.14098,87.09432 30.84328,30.75096 47.96185,53.97956 64.20922,87.12698 21.09043,43.02808 33.44952,94.33291 41.00079,170.20154 3.4445,34.60758 5.85998,81.73196 5.29676,103.33665 l -0.44018,16.88507 -3.37702,0.28681 c -1.85736,0.15774 -21.43406,-7.21136 -43.50377,-16.37578 z"
       id="path1660"
       transform="scale(0.26458333)" />
    <path
       style="opacity:0.93;fill:#ffcc1a;fill-opacity:1;fill-rule:evenodd;stroke:#ffcc1a;stroke-width:1.35081;stroke-opacity:1"
       d="M 682.83237,852.19871 C 629.94353,830.54168 570.56364,805.2885 568.92764,803.75708 c -1.12095,-1.04929 -3.01669,-11.94703 -5.08229,-29.2159 -10.22881,-85.51549 -25.4746,-136.10303 -53.69296,-178.16038 -26.10171,-38.90262 -77.20196,-66.19916 -133.95295,-71.55449 -23.51744,-2.21922 -99.8794,-1.8241 -118.47078,0.61301 -65.25222,8.55383 -116.798,39.93397 -155.91505,94.91828 l -8.889191,12.49495 -38.019673,-0.0207 c -20.910819,-0.0114 -38.867835,-0.55774 -39.904477,-1.21414 -1.581043,-1.00112 -1.289435,-3.87506 1.809393,-17.83246 4.88084,-21.98375 11.667081,-45.08901 17.452673,-59.42149 10.936032,-27.09155 29.01451,-59.16831 46.930605,-83.26931 12.500728,-16.81616 49.30011,-53.59373 66.38352,-66.34417 35.92701,-26.81461 75.70419,-46.30881 124.7443,-61.13531 l 18.77791,-5.6772 44.57659,-0.11816 44.57659,-0.11816 15.54351,6.23781 c 30.91663,12.40723 51.5407,24.01995 100.55128,56.61703 65.49025,43.55775 103.55794,76.06552 135.19765,115.45154 40.86316,50.86763 62.73569,113.3986 73.47293,210.05031 4.14601,37.32033 5.55919,58.98687 6.45374,98.94653 l 0.8089,36.13406 -3.9173,-0.045 c -2.15451,-0.0247 -13.6431,-4.02753 -25.53019,-8.89506 z"
       id="path1699"
       transform="scale(0.26458333)" />
    <path
       style="opacity:0.93;fill:#ffcc1a;fill-opacity:1;fill-rule:evenodd;stroke:#ffcc1a;stroke-width:1.35081;stroke-opacity:1"
       d="m 681.48157,851.78738 c -44.08912,-17.81605 -110.78023,-46.23789 -112.55962,-47.96967 -1.10778,-1.07815 -3.28685,-13.30762 -5.69922,-31.98541 -9.2639,-71.72558 -18.62456,-108.68197 -37.08392,-146.40918 -11.81604,-24.14961 -17.8883,-32.93212 -33.67846,-48.71029 -22.87252,-22.85516 -47.74854,-36.60646 -82.49077,-45.60039 -24.15744,-6.25378 -33.9466,-6.99976 -91.8548,-6.99976 -50.21284,0 -55.21656,0.21529 -70.78674,3.04574 -31.37578,5.70369 -61.29807,17.81258 -87.98995,35.60761 -16.44546,10.96391 -41.99803,36.37674 -55.87093,55.56536 l -10.498438,14.52116 -38.041825,-0.0207 c -20.923003,-0.0114 -38.925233,-0.57952 -40.004955,-1.26255 -1.692398,-1.0706 -1.522036,-3.25664 1.235322,-15.85129 12.268822,-56.03967 30.992041,-98.00344 64.206873,-143.90488 10.072121,-13.91923 50.331203,-54.56192 64.907253,-65.52573 37.40764,-28.13727 72.63019,-45.69793 126.24059,-62.93891 l 16.88508,-5.43021 44.84632,-0.52839 44.84632,-0.52839 17.61134,6.93595 c 29.67711,11.68788 50.58087,23.3239 96.46932,53.69938 48.88081,32.35623 78.07611,54.88762 105.21592,81.20001 50.99065,49.43612 77.79703,96.53362 94.26333,165.61607 11.87246,49.80957 20.20325,128.71291 20.21881,191.49821 l 0.006,25.32761 -3.71472,-0.0359 c -2.04309,-0.0199 -14.04838,-4.21172 -26.67841,-9.31542 z"
       id="path1738"
       transform="scale(0.26458333)" />
    <path
       style="opacity:0.93;fill:#ffcc1a;fill-opacity:1;fill-rule:evenodd;stroke:#ffcc1a;stroke-width:1.35081;stroke-opacity:1"
       d="M 671.34173,847.76054 C 624.2316,828.71171 571.02937,805.88575 568.90921,803.81276 c -1.11832,-1.09344 -3.5455,-14.56493 -6.37272,-35.37023 -7.7813,-57.26208 -15.53336,-91.69022 -27.58759,-122.52097 -17.97854,-45.98319 -39.59054,-73.1827 -75.0777,-94.48807 -19.06007,-11.44307 -51.25593,-22.08287 -77.07707,-25.47176 -21.40009,-2.80865 -111.91946,-2.33957 -130.47216,0.67613 -63.18029,10.26979 -114.04329,42.33425 -150.72058,95.01554 l -7.720381,11.08914 -39.848774,-0.28269 -39.848773,-0.2827 -0.442966,-3.12566 c -0.614476,-4.33587 9.507206,-44.1354 16.0499,-63.10993 10.286229,-29.83118 27.334981,-61.98007 48.328553,-91.13329 12.799745,-17.77468 52.605781,-57.95411 70.469701,-71.13074 36.62626,-27.01596 75.9979,-46.17172 125.76983,-61.19168 l 18.09099,-5.45942 43.64193,-1.8e-4 43.64192,-1.8e-4 18.49515,7.50845 c 29.7525,12.07859 49.17596,23.06596 96.84188,54.78107 53.30998,35.47046 82.31764,58.5005 111.48236,88.50916 45.33379,46.64563 67.90388,87.49594 84.23371,152.45724 11.73755,46.69286 19.38499,113.46029 20.69371,180.67028 l 0.78252,40.18648 h -3.91749 c -2.15461,0 -18.80616,-6.02019 -37.00343,-13.37821 z"
       id="path1777"
       transform="scale(0.26458333)" />
    <path
       style="opacity:0.93;fill:#ffcc1a;fill-opacity:1;fill-rule:evenodd;stroke:#ffcc1a;stroke-width:1.35081;stroke-opacity:1"
       d="m 699.71745,859.24929 c -17.77985,-6.3569 -125.64363,-51.43868 -130.72158,-54.6352 -1.05498,-0.6641 -3.01847,-10.44196 -5.08013,-25.29804 -11.03564,-79.52218 -20.32741,-116.8481 -38.26353,-153.70827 -11.07154,-22.75291 -19.41828,-34.61775 -34.86157,-49.55555 -25.66826,-24.82808 -52.30348,-38.29806 -93.95975,-47.5174 -13.3545,-2.95561 -16.26974,-3.07078 -77.3653,-3.05632 -60.88404,0.0145 -64.05569,0.14009 -77.33233,3.06463 -29.47561,6.49277 -56.74292,17.87525 -80.67407,33.67661 -16.92259,11.17373 -46.15492,40.08395 -58.7856,58.13785 L 93.932,632.85255 H 53.720029 13.508059 v -3.39132 c 0,-9.59539 12.310823,-54.92414 20.540557,-75.63082 11.858843,-29.83782 32.787814,-65.89482 51.748184,-89.15319 11.273992,-13.82962 39.8563,-42.54983 54.19522,-54.45672 31.30766,-25.99753 71.87602,-47.20288 122.30501,-63.92963 l 27.93219,-9.2648 h 45.17219 45.17218 l 16.33525,6.71473 c 31.12241,12.79311 52.43767,24.80734 98.2288,55.36613 51.37106,34.28257 73.69598,51.69742 103.08559,80.4133 33.19604,32.43505 51.18519,56.45748 67.78562,90.51985 21.29624,43.69769 33.19546,93.04027 41.04501,170.20154 3.625,35.63388 5.66059,83.99834 4.93205,117.18241 -0.13103,5.96617 -0.52337,6.02456 -12.26846,1.82526 z"
       id="path1816"
       transform="scale(0.26458333)" />
    <path
       style="opacity:0.93;fill:#ffcc1a;fill-opacity:1;fill-rule:evenodd;stroke:#ffcc1a;stroke-width:1.35081;stroke-opacity:1"
       d="m 690.2618,855.8491 c -30.04819,-11.64573 -116.34189,-48.10394 -121.30177,-51.24875 -1.12441,-0.71293 -3.66738,-14.18017 -7.07414,-37.46371 -11.11493,-75.96528 -19.82913,-108.48753 -39.30382,-146.6859 -24.64154,-48.33281 -60.53441,-75.42264 -119.47039,-90.16924 -18.82497,-4.71027 -40.51156,-5.86408 -95.80334,-5.09705 -45.6622,0.63343 -52.80282,1.03049 -64.66211,3.59552 -28.63618,6.1937 -58.88914,18.74114 -80.61858,33.43661 -21.32921,14.42481 -44.36057,37.36943 -60.25548,60.02857 -3.985483,5.68156 -7.999284,10.55699 -8.919554,10.83431 -0.920271,0.27732 -19.14927,0.29028 -40.508888,0.0288 l -38.835669,-0.47537 v -4.3512 c 0,-6.27524 8.643143,-40.56592 15.190805,-60.26779 10.520804,-31.65703 35.504691,-76.966 57.360064,-104.02407 11.015198,-13.63738 41.427102,-43.96879 54.951102,-54.80567 33.86868,-27.1392 71.82874,-46.74813 124.1913,-64.15317 l 24.08249,-8.00489 h 45.90308 45.90309 l 14.62725,5.99091 c 35.09097,14.37228 72.91433,36.59398 128.39544,75.43396 39.34921,27.54671 79.1075,62.86628 103.73494,92.15368 54.91913,65.31086 78.61414,151.83337 84.10622,307.11447 0.79768,22.55315 1.12526,41.85279 0.72798,42.88809 -1.12682,2.93643 -4.30952,2.26098 -22.42002,-4.75808 z"
       id="path1855"
       transform="scale(0.26458333)" />
    <path
       style="opacity:0.93;fill:#ffcc1a;fill-opacity:1;fill-rule:evenodd;stroke:#ffcc1a;stroke-width:1.35081;stroke-opacity:1"
       d="m 703.09446,860.8864 c -19.95365,-7.08961 -132.52815,-54.14151 -134.76705,-56.32755 -1.18596,-1.15794 -1.88139,-5.15589 -8.48568,-48.78296 -6.20688,-41.00189 -12.85554,-71.9113 -20.21631,-93.9849 -19.44095,-58.29989 -47.01194,-93.20979 -91.13801,-115.39731 -12.52096,-6.29581 -41.63523,-15.54231 -57.42911,-18.23913 -18.45671,-3.15149 -124.57995,-3.19621 -142.56392,-0.0601 -34.26858,5.97594 -69.70978,21.36382 -96.55418,41.92197 -13.26951,10.16214 -37.51355,35.3813 -49.04396,51.01654 l -9.712648,13.17036 -14.510157,-0.004 c -7.980586,-0.002 -25.90758,-0.40185 -39.837766,-0.88869 l -25.32761,-0.88516 v -4.92375 c 0,-6.20913 9.189138,-42.33872 15.301802,-60.16318 11.871434,-34.61698 33.873451,-74.57175 56.686467,-102.94034 10.844992,-13.48604 41.938322,-44.56203 55.713282,-55.68222 16.02191,-12.9341 36.7434,-26.04259 58.70966,-37.13997 22.53383,-11.38412 36.59641,-17.12858 66.81886,-27.29504 l 21.56687,-7.25483 h 46.82947 46.82946 l 13.32742,5.50922 c 30.81934,12.73994 55.12554,26.37678 99.779,55.9804 108.8757,72.1806 160.37133,129.92982 186.94769,209.65052 18.29291,54.87298 29.17495,135.36329 30.18335,223.25481 0.33888,29.53542 0.27247,30.40036 -2.3529,30.64918 -1.48589,0.14083 -4.5252,-0.39189 -6.75403,-1.1838 z"
       id="path1894"
       transform="scale(0.26458333)" />
    <path
       style="opacity:0.93;fill:#ffcc1a;fill-opacity:1;fill-rule:evenodd;stroke:#ffcc1a;stroke-width:1.35081;stroke-opacity:1"
       d="M 675.80099,850.43477 C 630.6962,832.2203 568.8168,805.70408 567.88063,804.18931 c -0.45467,-0.73566 -3.48397,-18.16023 -6.73181,-38.72125 -12.56887,-79.56975 -19.90741,-106.8525 -38.69239,-143.84819 -9.9188,-19.53438 -20.0946,-33.41258 -34.6412,-47.24526 -18.8894,-17.96234 -37.9554,-28.90809 -66.21333,-38.01296 -30.04538,-9.68079 -28.61701,-9.54825 -102.81171,-9.53917 -65.87354,0.008 -67.05515,0.0558 -79.69755,3.21719 -27.75066,6.93948 -55.3782,18.63702 -75.81229,32.09907 -19.24605,12.67934 -42.11403,35.12363 -60.35014,59.23196 l -9.196033,12.15726 -19.513269,0.43112 c -10.732298,0.23712 -28.783175,0.0212 -40.11306,-0.47991 l -20.599789,-0.91106 0.0017,-4.92329 c 0.002,-5.46282 4.752617,-26.01274 10.867829,-47.01102 C 38.06881,533.62121 65.485356,485.3758 99.671066,448.13848 145.60963,398.09918 190.73113,369.8297 264.43646,344.90979 l 23.31761,-7.88372 h 47.40343 47.40341 l 16.32907,6.86839 c 29.4949,12.40625 55.20758,26.98937 98.11559,55.64689 106.93027,71.41688 156.95764,127.29915 184.24965,205.81317 18.58226,53.45763 30.23789,138.39352 31.02279,226.0665 l 0.27209,30.39313 -3.37701,0.3667 c -1.85917,0.2019 -16.85872,-5.07755 -33.3721,-11.74608 z"
       id="path1933"
       transform="scale(0.26458333)" />
    <path
       style="opacity:0.93;fill:#ffcc1a;fill-opacity:1;fill-rule:evenodd;stroke:#ffcc1a;stroke-width:1.35081;stroke-opacity:1"
       d="m 685.53398,854.50326 c -23.17364,-9.05243 -62.56935,-25.45931 -94.91397,-39.5282 -15.62806,-6.79772 -22.53205,-10.48433 -23.35993,-12.47382 -0.64637,-1.55329 -3.37886,-17.10893 -6.07222,-34.5681 -11.02763,-71.48467 -18.06226,-100.29186 -32.37835,-132.5912 -11.29346,-25.47983 -22.22364,-41.89168 -39.0482,-58.63155 -18.74189,-18.64755 -38.89053,-30.45419 -68.7779,-40.30226 -28.36837,-9.34754 -30.62253,-9.5555 -102.86863,-9.49042 -70.95869,0.0639 -69.84421,-0.0361 -97.15522,8.7125 -26.09102,8.35769 -47.68791,19.18424 -66.6943,33.43394 -13.69644,10.26868 -36.70917,33.83007 -49.5778,50.75984 l -10.806451,14.21679 -29.851624,0.0813 c -16.418395,0.0447 -34.502308,-0.31187 -40.186476,-0.79236 l -10.33485,-0.87361 v -5.56456 c 0,-7.06357 7.747896,-37.93613 14.856078,-59.19608 10.072382,-30.12564 30.580685,-68.55262 51.638589,-96.75669 12.978462,-17.3828 50.821034,-55.04607 68.788664,-68.46273 30.17899,-22.53505 67.70328,-41.40865 113.70398,-57.18973 l 24.07811,-8.26027 h 48.40789 48.40788 l 15.31638,6.56349 c 31.231,13.38334 56.94525,27.97911 99.41968,56.43198 126.95961,85.04797 175.46855,149.11774 198.13939,261.69906 9.84391,48.88394 14.66466,97.45739 16.47353,165.9857 l 0.91813,34.78325 -3.93015,-0.0357 c -2.16157,-0.0195 -13.04808,-3.59734 -24.19223,-7.95063 z"
       id="path1972"
       transform="scale(0.26458333)" />
    <path
       style="opacity:0.93;fill:#ffcc1a;fill-opacity:1;fill-rule:evenodd;stroke:#ffcc1a;stroke-width:1.35081;stroke-opacity:1"
       d="m 688.911,855.92656 c -30.39851,-11.67788 -102.23861,-41.8257 -115.05634,-48.28358 -3.47405,-1.7503 -6.64619,-4.25867 -7.04921,-5.57414 -0.40301,-1.31546 -3.21093,-17.89226 -6.2398,-36.83731 -12.60615,-78.84912 -20.35609,-107.63764 -38.5533,-143.21293 -21.96357,-42.93848 -53.602,-69.70771 -100.64434,-85.15503 -27.36804,-8.98687 -31.60547,-9.37387 -102.63593,-9.37387 -50.36122,0 -65.34188,0.40887 -73.77968,2.01371 -25.20322,4.79356 -60.59004,19.38483 -82.75524,34.12299 -14.19214,9.43669 -45.57332,40.37844 -58.90616,58.0813 l -9.409991,12.49426 -33.094744,-0.011 c -18.20211,-0.007 -36.286023,-0.39436 -40.186475,-0.86286 l -7.091731,-0.85181 v -5.58667 c 0,-5.83841 5.634129,-30.24226 11.253707,-48.74466 8.798632,-28.96941 25.371754,-63.40834 43.839966,-91.09938 12.714122,-19.06342 18.564462,-26.25763 36.752198,-45.19442 45.23421,-47.09716 87.43933,-72.89981 159.39507,-97.44822 l 20.94644,-7.14609 46.60281,-0.64366 c 54.43831,-0.75188 49.8343,-1.57732 84.42536,15.13646 25.38512,12.26564 47.03324,25.09467 82.62137,48.96278 117.79315,79.00104 167.13074,139.99058 191.61322,236.86607 13.01532,51.50079 20.02317,112.06458 21.84341,188.77704 l 0.85738,36.13405 -3.93145,-0.0382 c -2.1623,-0.021 -11.52975,-2.95716 -20.81654,-6.52477 z"
       id="path2011"
       transform="scale(0.26458333)" />
    <path
       style="opacity:0.93;fill:#ffcc1a;fill-opacity:1;fill-rule:evenodd;stroke:#ffcc1a;stroke-width:1.35081;stroke-opacity:1"
       d="m 697.01583,859.24939 c -24.98911,-8.9342 -121.19091,-49.51224 -127.02357,-53.57868 -3.21889,-2.24417 -3.77346,-4.52691 -9.22231,-37.96084 -11.54772,-70.85632 -18.46867,-99.4476 -31.2757,-129.20391 -24.37198,-56.62669 -59.48594,-87.50122 -119.19507,-104.80425 -19.32609,-5.60048 -35.10172,-6.51566 -101.64004,-5.89636 l -60.78626,0.56577 -13.50806,3.6803 c -28.95046,7.88761 -58.32554,21.65458 -79.02214,37.03461 -13.18024,9.79448 -37.03978,34.04812 -50.5501,51.38502 l -10.701324,13.73231 -35.901479,-0.0149 c -19.745815,-0.008 -38.205682,-0.39565 -41.021929,-0.86106 l -5.120449,-0.84618 0.850111,-6.23068 c 1.435874,-10.52388 8.70276,-39.17859 14.083795,-55.5351 9.391459,-28.54681 22.671281,-55.10506 42.552637,-85.10077 13.307595,-20.07764 25.235615,-33.93874 48.861678,-56.7803 40.68929,-39.3382 76.37378,-59.89408 149.06394,-85.86755 l 18.23588,-6.516 49.30442,-0.0501 49.30441,-0.0501 11.48185,5.14174 c 34.12578,15.28203 58.34256,28.96605 98.77051,55.81158 49.51448,32.87931 83.98695,60.35003 112.70002,89.80934 20.12093,20.64388 29.10125,31.59234 41.75894,50.91092 27.56186,42.06577 44.46932,92.92218 54.65384,164.39482 5.5459,38.91986 9.51862,96.41783 9.54316,138.1199 l 0.0129,21.95059 -3.71471,-0.0505 c -2.0431,-0.0278 -7.66583,-1.46312 -12.49496,-3.18965 z"
       id="path2050"
       transform="scale(0.26458333)" />
    <path
       style="opacity:0.93;fill:#ffcc1a;fill-opacity:1;fill-rule:evenodd;stroke:#ffcc1a;stroke-width:1.35081;stroke-opacity:1"
       d="M 690.93721,857.23391 C 650.70868,841.83175 571.57595,807.87268 568.47964,804.6824 c -1.53345,-1.58 -3.59163,-10.57864 -6.55155,-28.64442 -13.96655,-85.24392 -21.03722,-113.16015 -37.26848,-147.14236 -24.50389,-51.30204 -59.62607,-79.84727 -118.06704,-95.95791 -16.32014,-4.49903 -45.71185,-5.88884 -105.36286,-4.98215 -51.07105,0.77627 -53.87765,0.95278 -65.51408,4.12005 -26.35128,7.17249 -53.69921,19.17495 -72.76461,31.93496 -14.00879,9.37574 -41.43958,36.02175 -56.616,54.99622 l -12.154717,15.19657 -37.972213,-0.0184 c -20.884716,-0.0101 -39.406498,-0.40239 -41.159516,-0.87166 -2.967808,-0.79445 -3.126467,-1.31182 -2.303884,-7.51276 1.414839,-10.66558 9.915758,-43.09072 15.791244,-60.23271 9.907002,-28.90411 30.747664,-67.74742 50.58184,-94.27562 10.012573,-13.3918 43.281586,-47.64143 59.339826,-61.08888 31.57178,-26.43875 69.20978,-46.21042 126.51728,-66.46095 l 22.82923,-8.06708 h 47.00408 47.00409 l 8.67543,3.49665 c 29.72152,11.97933 66.62792,32.71083 109.31047,61.40317 119.06914,80.04144 167.959,141.20776 192.54903,240.89907 12.41067,50.31458 20.06141,122.2892 21.2321,199.74207 l 0.3216,21.27706 -4.72782,-0.0438 c -2.60031,-0.024 -10.80645,-2.3711 -18.23588,-5.21559 z"
       id="path2089"
       transform="scale(0.26458333)" />
    <path
       style="opacity:0.93;fill:#ffcc1a;fill-opacity:1;fill-rule:evenodd;stroke:#ffcc1a;stroke-width:1.35081;stroke-opacity:1"
       d="m 692.28801,857.90567 c -31.96422,-11.69741 -121.10817,-49.98531 -124.03515,-53.2739 -1.24905,-1.40335 -4.63007,-17.53626 -8.96492,-42.77725 -10.7513,-62.6025 -16.11908,-86.04425 -25.36367,-110.76609 C 515.41042,601.57875 488.63145,569.44378 449.32772,549.5719 421.38261,535.44292 402.82423,530.6501 368.77,528.7674 c -28.53758,-1.57772 -113.00076,-0.45863 -124.27414,1.64656 -23.56202,4.39995 -68.06186,23.54815 -85.77617,36.90931 -18.27264,13.7823 -46.54622,42.84454 -59.451982,61.11033 l -4.035894,5.71208 -39.400593,0.0288 c -21.670325,0.0159 -40.362102,-0.34012 -41.53728,-0.79109 -2.8145,-1.08002 -2.696256,-4.79006 0.630866,-19.79416 7.798492,-35.16834 17.469048,-62.40121 32.399762,-91.23969 20.522144,-39.63826 40.283135,-65.13037 77.867141,-100.45032 34.7595,-32.6656 73.24616,-54.42708 136.68357,-77.28487 l 24.80885,-8.93913 h 48.23942 48.23944 l 12.14075,5.26573 c 27.78207,12.04975 53.13416,25.97075 86.77683,47.64975 66.05005,42.56199 117.159,84.83421 147.23337,121.77675 57.62558,70.78568 79.14672,154.33258 84.52807,328.14526 l 0.74234,23.9768 -5.06955,-0.0674 c -2.78824,-0.0371 -10.5403,-2.06953 -17.22679,-4.51648 z"
       id="path2128"
       transform="scale(0.26458333)" />
    <path
       style="opacity:0.93;fill:#ffcc1a;fill-opacity:1;fill-rule:evenodd;stroke:#ffcc1a;stroke-width:1.35081;stroke-opacity:1"
       d="m 694.31422,858.89541 c -26.39107,-9.18975 -122.86383,-50.69319 -126.0707,-54.23675 -1.33511,-1.47527 -4.76368,-17.64039 -9.65248,-45.50975 -14.06756,-80.19424 -20.32009,-102.71135 -38.10749,-137.23557 -21.84481,-42.39945 -54.67322,-69.61577 -102.40913,-84.90208 -23.49788,-7.52465 -29.47094,-7.96044 -104.68746,-7.63772 -66.3284,0.28459 -68.49599,0.37653 -78.34674,3.32272 -30.3911,9.08943 -53.13867,19.31927 -73.61892,33.10723 -11.14451,7.50287 -43.7646,39.76804 -56.05844,55.44852 l -10.131046,12.9219 -41.199579,-0.32298 -41.199579,-0.32297 -0.424272,-4.40333 c -0.547528,-5.68256 7.74259,-39.62276 14.761732,-60.43536 9.546678,-28.30702 30.194891,-68.05763 48.383442,-93.14467 14.653552,-20.2113 42.316982,-48.68059 67.631862,-69.60203 27.71658,-22.90633 65.82445,-42.48837 122.50937,-62.95243 l 20.52352,-7.40929 50.39379,0.38491 50.39378,0.3849 26.34072,12.95736 c 80.44511,39.57204 175.84877,110.82033 217.30511,162.28535 55.96382,69.47501 77.8833,154.3874 83.34559,322.86696 l 0.90874,28.02922 -5.23039,-0.0332 c -2.87671,-0.0182 -9.78935,-1.62064 -15.36143,-3.56091 z"
       id="path2167"
       transform="scale(0.26458333)" />
    <path
       style="opacity:0.93;fill:#ffcc1a;fill-opacity:1;fill-rule:evenodd;stroke:#ffcc1a;stroke-width:1.35081;stroke-opacity:1"
       d="m 702.7277,861.7455 c -12.55277,-3.37946 -89.77308,-35.153 -122.89506,-50.56715 -14.81313,-6.89366 -12.58662,-1.58575 -21.25647,-50.67464 -12.91516,-73.12598 -18.50034,-95.19279 -31.45415,-124.27414 -19.30322,-43.33576 -44.58544,-70.25683 -83.05438,-88.43819 -16.50062,-7.79861 -30.677,-12.62408 -46.6473,-15.87819 -10.35884,-2.11071 -20.00049,-2.39729 -80.65636,-2.39729 -67.85692,0 -69.06346,0.047 -80.37295,3.13364 -24.67914,6.73547 -53.22259,19.42109 -72.94352,32.41844 -13.41512,8.8414 -46.27494,40.91406 -59.3851,57.96249 -4.701228,6.11347 -9.523136,11.3385 -10.715351,11.61119 -1.192214,0.27267 -7.638426,0.41866 -14.324915,0.32445 -6.686489,-0.0942 -24.466472,-0.30439 -39.511072,-0.46703 l -27.353819,-0.29572 v -4.90287 c 0,-13.66452 14.505101,-63.48303 25.710125,-88.30274 11.922419,-26.40876 27.673379,-52.81461 44.316191,-74.29432 10.49779,-13.54875 43.782111,-47.1698 58.586461,-59.17917 27.6652,-22.44214 65.86181,-42.73622 114.72015,-60.95147 l 29.2302,-10.89753 h 50.16702 50.16703 l 15.15919,6.88626 c 63.44334,28.81996 149.28224,87.35421 200.17148,136.49856 77.05353,74.41153 104.87432,155.47836 112.81189,328.72184 2.00076,43.66823 1.85587,54.23572 -0.75737,55.23851 -1.17518,0.45097 -2.23894,0.77992 -2.36391,0.73103 -0.12495,-0.0489 -3.43158,-0.95157 -7.34801,-2.00596 z"
       id="path2206"
       transform="scale(0.26458333)" />
    <path
       style="opacity:0.93;fill:#ffcc1a;fill-opacity:1;fill-rule:evenodd;stroke:#ffcc1a;stroke-width:1.35081;stroke-opacity:1"
       d="m 697.01583,859.97587 c -19.03777,-6.32059 -86.99778,-34.55248 -115.89668,-48.14571 -12.9069,-6.07105 -13.87336,-6.80533 -15.13786,-11.50136 -0.74291,-2.75894 -4.69362,-23.48585 -8.77935,-46.05978 -8.55675,-47.27653 -12.75439,-66.92386 -18.14837,-84.94471 -20.67187,-69.063 -58.48647,-110.84217 -118.53208,-130.9593 -22.92588,-7.68087 -29.22021,-8.1737 -104.39378,-8.1737 -62.95315,0 -69.31308,0.20844 -78.56595,2.57493 -22.6985,5.80529 -56.66875,20.74689 -74.51157,32.77341 -10.84064,7.30688 -45.62012,41.46172 -58.57151,57.51956 L 94.400918,635.55417 H 77.810135 c -9.12493,0 -27.629755,-0.39986 -41.121833,-0.88858 l -24.531049,-0.88856 v -5.5987 c 0,-7.05087 7.754665,-38.83038 14.111225,-57.82944 11.469098,-34.27988 29.785542,-68.99086 52.553697,-99.59304 11.857675,-15.93765 49.968235,-54.28888 66.861405,-67.28362 29.94805,-23.03699 65.05483,-40.80428 122.02203,-61.75449 l 16.43054,-6.04248 h 51.31449 51.31448 l 25.78569,12.73827 c 81.38583,40.20501 175.8062,110.59384 217.56498,162.19109 34.04039,42.06038 54.58538,88.03432 67.45289,150.9406 9.39227,45.91673 15.72062,113.37537 16.12626,171.90201 0.24101,34.77427 1.60802,32.60001 -16.67911,26.52864 z"
       id="path2245"
       transform="scale(0.26458333)" />
    <path
       style="opacity:0.93;fill:#ffcc1a;fill-opacity:1;fill-rule:evenodd;stroke:#ffcc1a;stroke-width:1.35081;stroke-opacity:1"
       d="m 694.31422,859.33196 c -21.88087,-7.7431 -91.17182,-36.69426 -115.59898,-48.29959 -9.49453,-4.51085 -11.39,-5.96971 -12.58204,-9.68391 -0.77192,-2.40515 -4.49825,-21.39315 -8.28074,-42.19556 -14.60938,-80.34662 -21.0034,-103.54499 -37.23244,-135.08443 -24.70961,-48.02057 -65.4667,-78.67992 -121.45688,-91.36547 -6.29503,-1.42624 -24.54397,-1.83629 -81.72376,-1.83629 -67.23196,0 -74.32207,0.21264 -81.72375,2.45105 -26.01264,7.86668 -52.5555,19.64695 -69.85499,31.00308 -13.86245,9.0999 -41.35839,35.31484 -58.52977,55.80295 l -12.932431,15.43038 -25.924026,-0.006 c -14.258216,-0.003 -32.762483,-0.40018 -41.120594,-0.88179 l -15.196566,-0.87565 v -5.81992 c 0,-11.33957 10.733301,-50.89462 20.388796,-75.1381 11.402821,-28.63075 32.60809,-65.71599 49.634664,-86.80453 4.19889,-5.2006 14.019948,-16.08632 21.824577,-24.19049 45.52045,-47.26751 80.48753,-69.12475 155.55413,-97.23384 l 23.84379,-8.92844 h 52.08113 52.08112 l 26.73633,13.42785 c 88.63728,44.51649 183.39268,117.06207 223.56031,171.15976 42.1208,56.72824 62.30676,120.91797 71.93857,228.75899 2.64075,29.56674 5.0857,83.77861 4.53864,100.63504 -0.43103,13.28063 -0.49526,13.51401 -3.81542,13.86214 -1.85736,0.19475 -9.15171,-1.68944 -16.20967,-4.18708 z"
       id="path2284"
       transform="scale(0.26458333)" />
    <path
       style="opacity:0.93;fill:#ffcc1a;fill-opacity:1;fill-rule:evenodd;stroke:#ffcc1a;stroke-width:1.35081;stroke-opacity:1"
       d="m 693.28734,859.07476 c -15.7563,-5.45427 -78.13168,-31.27772 -106.19101,-43.96316 -16.16481,-7.308 -18.9768,-9.04348 -20.46239,-12.6288 -0.94724,-2.28609 -5.74271,-25.6444 -10.65659,-51.90735 -13.06272,-69.81571 -18.5618,-90.27206 -31.90541,-118.68678 -9.79395,-20.85583 -20.19448,-35.82387 -35.58431,-51.21151 -19.59696,-19.59416 -41.01554,-32.73648 -67.7116,-41.54745 -23.30281,-7.69103 -24.7824,-7.82191 -93.88101,-8.30432 -76.10897,-0.53135 -83.32705,-0.0638 -103.33665,6.6953 -19.59527,6.61903 -53.07257,23.16464 -64.53969,31.8977 -11.68817,8.9014 -43.58833,40.83522 -55.00663,55.06469 l -8.780236,10.94191 -31.202429,0.0646 c -17.161338,0.0355 -35.853114,-0.32852 -41.537282,-0.80901 l -10.33485,-0.87361 v -6.252 c 0,-3.43861 1.849532,-13.83505 4.110072,-23.1032 11.925665,-48.89491 32.230151,-92.84113 61.14744,-132.34509 12.060262,-16.47554 54.112075,-58.44027 71.849285,-71.70048 26.97376,-20.16539 59.63216,-36.8506 107.84722,-55.09923 l 25.44805,-9.63168 h 52.57448 52.5745 l 25.73336,12.88023 c 41.97157,21.00791 81.0672,45.2959 122.37303,76.02372 98.0728,72.95736 138.42152,130.46582 160.34354,228.53543 10.50664,47.0021 17.29424,115.55058 17.58883,177.63098 l 0.15385,32.41934 -3.37702,0.35373 c -1.85736,0.19456 -9.6138,-1.80522 -17.23655,-4.44393 z"
       id="path2323"
       transform="scale(0.26458333)" />
    <path
       style="opacity:0.93;fill:#ffcc1a;fill-opacity:1;fill-rule:evenodd;stroke:#ffcc1a;stroke-width:1.35081;stroke-opacity:1"
       d="m 694.98962,859.89282 c -23.59605,-8.29521 -100.02668,-40.26268 -118.49479,-49.56102 -8.73767,-4.39925 -9.15512,-4.83845 -11.08757,-11.66546 -1.10443,-3.90175 -5.06559,-23.50639 -8.80256,-43.56585 -14.12413,-75.81605 -20.01313,-97.4067 -34.53109,-126.60022 -22.43601,-45.11555 -56.58897,-74.6469 -104.16597,-90.0701 -19.60195,-6.35443 -27.57063,-6.88966 -102.25451,-6.86809 -56.29204,0.0162 -70.70743,0.39162 -77.61899,2.02113 -19.76963,4.66097 -53.88046,19.56677 -72.15333,31.52967 -12.31489,8.06234 -46.02928,40.50578 -60.51795,58.23659 l -10.131046,12.39808 -40.912088,-0.43439 c -32.939289,-0.34974 -41.135998,-0.79698 -42.061064,-2.295 -1.588421,-2.57223 -0.522425,-10.15592 4.200525,-29.88334 C 28.709183,551.9675 52.55784,502.40984 83.097841,464.65929 95.2265,449.66704 133.55283,412.00928 147.25165,401.6246 c 28.93442,-21.93435 58.79859,-36.93878 122.23412,-61.41313 l 13.50806,-5.21161 52.68143,0.35077 52.68143,0.35078 23.41109,11.6782 c 69.7755,34.80625 146.13361,88.39888 194.06872,136.20889 61.63748,61.47661 89.22442,126.94935 101.88001,241.79426 4.00444,36.3388 5.47872,59.49416 6.42889,100.97274 l 0.85868,37.48486 -4.604,-0.0743 c -2.53221,-0.0408 -9.46691,-1.78379 -15.41046,-3.87324 z"
       id="path2362"
       transform="scale(0.26458333)" />
    <path
       style="opacity:0.93;fill:#ffcc1a;fill-opacity:1;fill-rule:evenodd;stroke:#ffcc1a;stroke-width:1.35081;stroke-opacity:1"
       d="m 692.96342,859.31693 c -25.47085,-8.92422 -104.53333,-42.35904 -119.54632,-50.55507 -8.09056,-4.41687 -6.69142,0.18053 -18.21021,-59.83639 -13.20274,-68.79108 -20.26805,-94.2947 -33.46559,-120.80074 -8.83224,-17.73873 -19.24554,-32.09555 -33.92661,-46.77462 -21.0029,-21.00006 -39.86777,-32.47585 -69.91471,-42.53019 -19.93143,-6.66947 -34.20968,-7.56809 -111.65343,-7.0271 l -65.1277,0.45495 -16.88507,5.7888 c -20.32921,6.96955 -45.47438,18.99183 -59.83741,28.60914 -11.66461,7.81048 -46.70414,41.76282 -60.31101,58.43971 l -8.541566,10.46875 -37.978554,-0.15982 c -20.888205,-0.0879 -39.802143,-0.56412 -42.030972,-1.05826 -3.899204,-0.86448 -4.039864,-1.15209 -3.720369,-7.60732 0.428228,-8.65213 8.601938,-41.50632 14.646804,-58.87277 13.223962,-37.99147 35.076212,-77.62167 58.010462,-105.20499 11.803432,-14.19614 51.947305,-53.18053 64.259505,-62.40348 27.39679,-20.52267 63.43692,-38.57936 117.94664,-59.09317 l 18.80445,-7.07674 51.43746,0.46183 51.43747,0.46182 27.69152,14.30652 c 43.70616,22.58032 83.22839,47.28846 121.57253,76.00361 62.36079,46.70073 99.82049,86.40067 124.84825,132.31468 32.34927,59.34554 49.1033,146.00176 51.69474,267.37861 l 0.82915,38.83567 -4.59841,-0.0136 c -2.52911,-0.007 -10.37309,-2.03688 -17.43105,-4.50979 z"
       id="path2401"
       transform="scale(0.26458333)" />
    <path
       style="opacity:0.93;fill:#ffcc1a;fill-opacity:1;fill-rule:evenodd;stroke:#ffcc1a;stroke-width:1.35081;stroke-opacity:1"
       d="M 686.88479,857.27502 C 647.7062,842.69205 571.55246,809.6658 567.96551,805.70227 566.33949,803.90555 562.44297,787.01294 555.1329,750.06896 541.25703,679.94247 536.62702,662.21745 525.71186,637.43664 504.1817,588.55647 467.56577,555.24896 417.60495,539.0977 c -13.49118,-4.3614 -17.47353,-5.01113 -39.02146,-6.36646 -14.71636,-0.92563 -45.93822,-1.24559 -80.73079,-0.82734 l -56.73385,0.68202 -14.85887,4.98658 c -17.71155,5.94394 -49.60301,21.03751 -61.45177,29.08385 -10.20193,6.928 -45.06139,40.62918 -59.04,57.07826 l -10.044378,11.81956 -38.743976,-0.13465 c -21.309187,-0.0741 -40.263633,-0.5713 -42.120991,-1.10499 -3.106908,-0.89272 -3.352714,-1.53874 -3.073186,-8.07694 0.396104,-9.26496 7.306614,-36.78479 14.790168,-58.89912 10.852997,-32.07124 34.624194,-76.13253 54.2929,-100.63504 8.863511,-11.04182 40.522653,-43.21806 55.197143,-56.0987 28.83545,-25.31052 63.44296,-43.91768 127.10437,-68.3392 l 20.7006,-7.94108 h 51.45302 51.45302 l 24.40586,12.35552 c 88.68024,44.89454 176.59787,110.57078 220.72535,164.88628 56.22858,69.21047 80.10715,163.63451 82.93658,327.9596 l 0.40702,23.63911 -5.40322,0.32319 c -3.74102,0.22376 -10.80538,-1.68759 -22.9637,-6.21313 z"
       id="path2440"
       transform="scale(0.26458333)" />
    <path
       style="opacity:0.93;fill:#ffcc1a;fill-opacity:1;fill-rule:evenodd;stroke:#ffcc1a;stroke-width:1.35081;stroke-opacity:1"
       d="m 693.63882,859.9478 c -25.13003,-8.92807 -93.90247,-37.72966 -114.1431,-47.80262 -7.7547,-3.85922 -12.018,-6.84503 -13.13351,-9.19811 -0.9084,-1.91621 -5.97061,-25.31892 -11.24934,-52.00603 -17.14189,-86.66227 -24.76392,-110.58315 -45.15943,-141.72759 -21.54826,-32.90472 -51.54415,-55.87394 -90.17579,-69.05171 -21.17303,-7.22241 -29.18882,-7.79541 -107.06609,-7.65345 l -70.2419,0.12806 -11.44059,3.65771 c -24.71245,7.90094 -54.48664,22.19624 -69.74317,33.48536 -11.29786,8.35989 -38.66004,34.95106 -52.74135,51.25519 -6.57619,7.61428 -12.353678,14.14808 -12.838857,14.51956 -0.485179,0.37147 -19.148881,0.37147 -41.474892,0 -28.900066,-0.48086 -41.057348,-1.14073 -42.205665,-2.29086 -2.2290889,-2.23261 0.312292,-17.30441 7.079399,-41.98477 14.435093,-52.6463 41.916128,-103.88291 74.988562,-139.8113 51.020343,-55.42619 83.712463,-76.56679 169.442413,-109.5712 l 19.66743,-7.57159 h 52.45781 52.45782 l 23.75816,12.33572 c 47.54715,24.68742 90.16832,51.36282 129.12102,80.81324 96.56304,73.00706 136.377,131.93448 157.22793,232.70822 9.7412,47.07981 14.49512,96.9137 17.01192,178.33112 l 0.78292,25.32761 -5.78762,-0.0266 c -3.1832,-0.0147 -10.65054,-1.75436 -16.59408,-3.86595 z"
       id="path2479"
       transform="scale(0.26458333)" />
    <path
       style="opacity:0.93;fill:#ffcc1a;fill-opacity:1;fill-rule:evenodd;stroke:#ffcc1a;stroke-width:1.35081;stroke-opacity:1"
       d="m 691.61261,859.27684 c -16.58029,-5.86105 -34.48957,-13.05793 -69.5665,-27.95544 -39.17583,-16.63834 -53.61945,-24.01982 -55.7367,-28.48451 -0.93746,-1.97683 -5.96782,-24.77168 -11.17857,-50.65523 -10.84051,-53.84843 -17.16616,-80.52205 -23.0957,-97.38863 -20.12596,-57.2483 -60.13704,-97.5418 -114.25263,-115.05914 -18.36159,-5.94368 -32.50282,-6.84097 -107.81331,-6.84097 h -67.97019 l -13.27274,4.5403 c -23.45496,8.0234 -45.27169,18.1764 -61.22634,28.49333 -14.34359,9.27515 -37.70126,31.77294 -67.13404,64.66263 l -5.672366,6.33859 -39.579628,-0.87158 c -21.768796,-0.47937 -40.719762,-1.45856 -42.113258,-2.17597 -2.199486,-1.13235 -2.416886,-2.31049 -1.648419,-8.93316 1.30104,-11.21241 9.453734,-42.40212 15.470944,-59.18712 13.177867,-36.7596 32.446885,-72.10445 54.615101,-100.17959 12.30602,-15.58507 51.131286,-53.57213 66.808926,-65.36658 26.26787,-19.76157 54.44967,-34.37816 104.63241,-54.26794 l 29.32123,-11.62138 h 52.9536 52.9536 l 25.9428,13.3524 c 103.22353,53.12769 194.63019,125.74303 234.57826,186.35381 13.02362,19.75997 20.175,33.36576 28.68654,54.57733 23.42004,58.365 34.47325,129.80403 38.03887,245.85234 l 0.90271,29.38003 -5.90598,-0.0136 c -3.24828,-0.008 -11.68066,-2.05496 -18.73862,-4.54991 z"
       id="path2518"
       transform="scale(0.26458333)" />
    <path
       style="opacity:0.93;fill:#ffcc1a;fill-opacity:1;fill-rule:evenodd;stroke:#ffcc1a;stroke-width:1.35081;stroke-opacity:1"
       d="m 688.911,858.60133 c -26.44007,-9.50621 -91.38074,-36.97482 -111.88251,-47.32408 -4.55632,-2.30003 -9.15919,-5.54706 -10.22859,-7.21562 -1.06939,-1.66855 -5.65257,-21.26962 -10.18483,-43.55792 C 536.24423,660.32615 529.83509,640.21988 507.72049,607.11526 481.54822,567.93647 434.44392,538.76374 390.3829,534.44552 c -7.05796,-0.69172 -43.10414,-1.33474 -80.10261,-1.42895 l -67.26996,-0.17128 -12.12925,4.06367 c -25.07189,8.39985 -49.6647,20.02394 -66.60636,31.4823 -9.55693,6.46375 -43.4718,39.29239 -58.34867,56.47987 l -10.694236,12.3552 -39.17337,-0.91442 c -21.545354,-0.50293 -40.541061,-1.24899 -42.212684,-1.65792 -4.0853425,-0.99939 -4.0013288,-5.96706 0.435475,-25.74935 7.011777,-31.26325 19.329235,-64.783 33.878832,-92.19513 9.205876,-17.34431 24.603926,-41.0451 33.931939,-52.22828 22.220964,-26.64031 56.409804,-58.43027 79.329294,-73.76312 19.91538,-13.32314 55.84293,-31.01044 92.38849,-45.48331 l 27.54981,-10.91035 h 54.04334 54.04335 l 27.14673,14.37679 c 107.92663,57.15748 194.44772,126.77959 234.77481,188.9195 41.312,63.65755 59.75229,148.5331 64.05195,294.81338 l 0.92314,31.40624 -6.62423,-0.0697 c -4.1065,-0.0432 -12.01504,-2.00798 -20.80769,-5.16927 z"
       id="path2557"
       transform="scale(0.26458333)" />
    <path
       style="opacity:0.93;fill:#ffcc1a;fill-opacity:1;fill-rule:evenodd;stroke:#ffcc1a;stroke-width:1.35081;stroke-opacity:1"
       d="m 690.2618,859.29652 c -23.5554,-8.29057 -87.77733,-35.27339 -108.64094,-45.64546 -6.63206,-3.29705 -13.14511,-7.48605 -14.47341,-9.3089 -1.50012,-2.05865 -5.2237,-16.87593 -9.82849,-39.11063 -16.84293,-81.32785 -20.89995,-97.98039 -28.79568,-118.19551 -16.43256,-42.0716 -46.88746,-76.53252 -84.67652,-95.81483 -13.92029,-7.10299 -32.84469,-13.51896 -46.03443,-15.60714 -5.5366,-0.87654 -39.4083,-1.80674 -81.72375,-2.24435 l -72.26812,-0.74736 -16.20967,5.64812 c -20.75754,7.23279 -46.61973,19.5902 -60.61876,28.96473 -13.26197,8.88094 -36.74899,30.9412 -56.90135,53.44479 L 95.231814,637.27246 55.116993,636.39842 C 33.053842,635.91769 14.058134,635.16211 12.90431,634.71934 4.8088146,631.61281 23.165531,566.22079 43.574393,525.46349 62.101331,488.46445 78.15437,466.55184 109.93139,434.88526 c 25.66288,-25.57369 39.96135,-37.54183 58.97217,-49.36102 16.48412,-10.24833 55.98318,-29.03393 86.04484,-40.92261 l 25.9868,-10.27718 h 54.07544 54.07543 l 12.30178,6.17833 c 94.11634,47.26806 181.83068,111.79019 229.01663,168.46325 56.90231,68.34297 80.68228,158.37916 85.07619,322.11729 l 0.87904,32.75704 -6.63263,-0.0136 c -4.03109,-0.008 -11.66601,-1.78519 -19.46528,-4.53023 z"
       id="path2596"
       transform="scale(0.26458333)" />
    <path
       style="opacity:0.93;fill:#ffcc1a;fill-opacity:1;fill-rule:evenodd;stroke:#ffcc1a;stroke-width:1.35081;stroke-opacity:1"
       d="m 700.08561,862.45204 c -20.85846,-5.3981 -119.55466,-47.09191 -129.58562,-54.74291 -5.37474,-4.09952 -4.92588,-2.52719 -16.75409,-58.68727 -16.00995,-76.01483 -21.58636,-96.07485 -33.06729,-118.95314 -25.60224,-51.01814 -76.94592,-88.99265 -127.65529,-94.41566 -7.02431,-0.75121 -44.38032,-1.52758 -83.01337,-1.72528 l -70.24191,-0.35946 -16.88507,6.60816 c -22.81364,8.92837 -41.83301,18.14204 -54.03224,26.17516 -12.19879,8.03285 -35.76875,29.87941 -57.53764,53.33056 l -15.987307,17.22277 -27.738504,-0.16553 c -15.256179,-0.091 -34.121063,-0.54692 -41.921967,-1.0131 l -14.183462,-0.84758 -0.40074,-6.14762 c -0.700722,-10.74957 9.007424,-47.88078 19.518046,-74.6516 6.467919,-16.47396 20.149301,-43.75593 29.623608,-59.07227 12.009682,-19.41509 22.763965,-32.93501 41.746576,-52.48239 48.73899,-50.18906 73.954,-66.22648 156.70999,-99.67178 l 21.61289,-8.73472 55.2145,0.17429 55.21449,0.17428 23.13225,12.25374 c 100.07475,53.01214 181.48957,115.47297 225.05978,172.66417 44.58558,58.524 66.57071,134.25945 74.3074,255.97771 1.19933,18.86853 3.92989,87.42859 3.50282,87.95006 -1.24493,1.52011 -8.98596,1.11971 -16.63785,-0.86059 z"
       id="path2635"
       transform="scale(0.26458333)" />
    <path
       style="opacity:0.93;fill:#ffcc1a;fill-opacity:1;fill-rule:evenodd;stroke:#ffcc1a;stroke-width:1.35081;stroke-opacity:1"
       d="m 706.47147,864.25893 c -10.43313,-1.74347 -53.01977,-18.27101 -99.95963,-38.79356 -28.22809,-12.3416 -36.09122,-16.54928 -39.44907,-21.10976 -1.59288,-2.1634 -5.00102,-15.1088 -9.24631,-35.12095 C 539.44061,682.6113 535.2735,665.89632 526.71775,644.49268 505.71576,591.95265 462.6277,553.12737 409.30119,538.69236 l -12.83966,-3.47558 -77.92881,-0.64103 -77.92878,-0.64101 -15.27682,5.71087 c -21.68735,8.10729 -44.12225,18.98451 -57.45695,27.85712 -11.9646,7.96097 -46.45839,40.56801 -62.50731,59.08827 l -8.78024,10.13229 -31.068535,-0.0432 C 48.426391,636.65629 29.278717,636.24127 22.9637,635.7578 l -11.48185,-0.87904 -0.417549,-5.78553 c -0.512039,-7.09475 2.644115,-22.98601 8.496295,-42.77888 12.400989,-41.94185 30.92924,-79.89216 55.099435,-112.85689 11.743215,-16.01608 58.031389,-62.41146 74.380619,-74.55289 25.01,-18.57315 54.36872,-33.75337 106.93706,-55.29284 l 24.31451,-9.96268 27.01612,-0.19486 c 14.85886,-0.10717 40.08921,0.19676 56.06744,0.6754 l 29.05133,0.87027 24.9809,13.34656 c 101.92417,54.45508 184.8258,119.35947 226.22959,177.11707 40.2606,56.16283 60.78893,127.13708 68.86113,238.07907 2.5047,34.42406 5.09105,98.70038 4.03992,100.40114 -0.77713,1.25742 -3.85264,1.35372 -10.06718,0.31523 z"
       id="path2674"
       transform="scale(0.26458333)" />
    <path
       style="opacity:0.93;fill:#ffcc1a;fill-opacity:1;fill-rule:evenodd;stroke:#ffcc1a;stroke-width:1.35081;stroke-opacity:1"
       d="m 697.01583,861.98966 c -18.43831,-5.56323 -92.53909,-36.2425 -115.74974,-47.92282 -11.23619,-5.6544 -14.28825,-8.2325 -16.4372,-13.88469 -0.74076,-1.94832 -5.69008,-23.83027 -10.99851,-48.62654 -21.80077,-101.83402 -27.52196,-118.06552 -53.54933,-151.92399 -23.46993,-30.53157 -56.70238,-52.17905 -94.36388,-61.46828 -9.89295,-2.4401 -17.31515,-2.73234 -87.80239,-3.45702 l -76.99593,-0.79161 -13.50806,5.03898 c -18.08562,6.74657 -49.73066,22.00453 -59.57737,28.72579 -15.90415,10.85601 -35.84921,30.09537 -70.191753,67.70825 -1.350469,1.47908 -7.598261,1.82379 -30.520887,1.68397 -15.852547,-0.0967 -35.053405,-0.56064 -42.668573,-1.03101 l -13.84576,-0.85521 v -7.31613 c 0,-8.7054 2.590549,-21.01727 9.008861,-42.81556 C 33.624835,538.15296 58.78728,490.1748 85.427091,459.9494 98.578716,445.02764 128.9448,415.12431 141.83462,404.4015 c 25.28495,-21.03412 55.6651,-37.06706 119.98409,-63.32087 l 20.69985,-8.44929 54.26987,0.61993 54.26987,0.61993 19.58669,10.52395 c 115.28235,61.94138 197.24968,126.90983 238.8615,189.32498 36.75927,55.13661 56.28631,127.22562 63.62519,234.88841 2.0885,30.63881 4.45152,92.48787 3.61674,94.66331 -1.05037,2.73721 -7.88232,2.29329 -19.73259,-1.28219 z"
       id="path2713"
       transform="scale(0.26458333)" />
    <path
       style="opacity:0.93;fill:#ffcc1a;fill-opacity:1;fill-rule:evenodd;stroke:#ffcc1a;stroke-width:1.35081;stroke-opacity:1"
       d="m 700.3167,863.17068 c -19.78091,-5.33663 -110.755,-43.42496 -127.1593,-53.23808 -8.35415,-4.99749 -7.66989,-2.93564 -19.99019,-60.23534 -10.06178,-46.79567 -17.39277,-76.94432 -22.49977,-92.5302 -18.82125,-57.4399 -61.89715,-100.13169 -117.99624,-116.94403 -11.76216,-3.525 -13.64983,-3.6776 -58.08466,-4.69558 -25.26007,-0.5787 -61.29685,-1.10427 -80.08174,-1.16795 l -34.15434,-0.11578 -15.82548,6.23416 c -22.31903,8.79217 -43.73169,19.27939 -56.34965,27.59822 -7.64714,5.04164 -19.88945,16.23402 -41.87498,38.28363 L 95.231814,637.51882 63.487876,637.17431 C 46.02871,636.98483 27.033003,636.4643 21.275193,636.01756 l -10.468746,-0.81224 v -7.31195 c 0,-21.25241 15.816623,-70.448 34.354296,-106.85468 17.101176,-33.5855 32.952332,-55.12421 62.375047,-84.75586 45.74889,-46.07373 70.75702,-61.412 158.29917,-97.08978 l 15.26049,-6.2194 53.63061,0.0297 c 61.94806,0.0343 51.65098,-2.08422 88.9024,18.29048 110.39907,60.38291 192.52485,127.88563 230.7276,189.64492 33.33819,53.89517 51.58433,123.50962 58.7878,224.29281 2.04631,28.62961 4.55546,95.56232 3.66901,97.87237 -0.98825,2.57532 -7.10612,2.60009 -16.49617,0.0667 z"
       id="path2752"
       transform="scale(0.26458333)" />
    <path
       style="opacity:0.93;fill:#ffcc1a;fill-opacity:1;fill-rule:evenodd;stroke:#ffcc1a;stroke-width:1.35081;stroke-opacity:1"
       d="m 692.28801,860.60777 c -24.0155,-7.9885 -86.79069,-34.14229 -111.44148,-46.42944 -10.53588,-5.25159 -13.24002,-7.24259 -15.1087,-11.12424 -1.25182,-2.6003 -6.62724,-24.78728 -11.94538,-49.30441 -17.73032,-81.73849 -24.37511,-104.89475 -36.63008,-127.65116 -16.04185,-29.78832 -43.00014,-56.74935 -72.74724,-72.75466 -12.70934,-6.83819 -36.29035,-14.7934 -48.27515,-16.28592 -9.14756,-1.13919 -68.34244,-2.13881 -126.65421,-2.13881 h -31.06853 l -12.83266,5.16135 c -7.05796,2.83873 -22.55846,9.97135 -34.44555,15.85026 -26.59888,13.15481 -38.58465,22.75226 -72.51388,58.06448 L 95.231814,638.34211 62.812473,637.57785 C 44.981836,637.15752 25.986128,636.47836 20.59979,636.06863 l -9.793343,-0.74497 v -7.90126 c 0,-27.0128 22.821174,-89.83598 47.43879,-130.59169 14.853857,-24.59131 38.0159,-51.59619 66.620263,-77.6733 37.45101,-34.14212 61.59411,-47.85145 142.01058,-80.63879 l 13.59998,-5.54497 h 54.03836 54.03835 l 12.05921,5.87723 c 13.35581,6.50915 37.99453,20.16882 61.51318,34.10282 84.76123,50.21816 153.75915,109.3894 187.91691,161.15378 43.44112,65.83286 61.8621,149.15407 66.70182,301.70366 l 0.9321,29.38003 -5.93995,-0.045 c -3.26698,-0.0248 -12.01859,-2.06709 -19.44803,-4.53841 z"
       id="path2791"
       transform="scale(0.26458333)" />
    <path
       style="opacity:0.93;fill:#ffcc1a;fill-opacity:1;fill-rule:evenodd;stroke:#ffcc1a;stroke-width:1.35081;stroke-opacity:1"
       d="m 698.94659,863.16574 c -15.80987,-4.26467 -102.87549,-40.3948 -121.47708,-50.41005 -6.97806,-3.75705 -10.05417,-6.31444 -11.7399,-9.76021 -1.25635,-2.56807 -6.92243,-25.64047 -12.5913,-51.27201 C 535.30028,671.0695 530.19152,652.98936 518.92638,630.6457 497.61387,588.37377 461.79232,557.23325 417.39902,542.38557 400.28096,536.6603 383.4315,535.67848 301.48604,535.63131 l -63.90694,-0.0368 -14.98392,6.137 c -22.46866,9.20254 -51.47651,24.35182 -60.91046,31.81037 -4.60254,3.6388 -21.55303,19.79287 -37.66776,35.89793 l -29.299514,29.28194 -41.189045,-1.26761 c -22.653975,-0.6972 -41.64256,-1.72113 -42.196856,-2.27544 -1.7895897,-1.78959 -0.628424,-17.17463 2.200667,-29.15806 12.048739,-51.03593 37.294464,-104.34296 66.619102,-140.66803 10.854785,-13.44607 48.795776,-51.20255 62.358706,-62.05546 27.58044,-22.06957 61.07874,-39.61154 123.01874,-64.42092 l 14.95426,-5.98976 55.96305,0.38128 55.96304,0.38128 25.66531,14.01444 c 121.57728,66.38676 204.22864,135.50776 242.19093,202.54329 28.76544,50.79534 44.7256,113.01454 52.21179,203.5429 2.43509,29.44665 4.80078,77.23739 4.80078,96.98299 v 14.4585 l -5.74092,-0.0889 c -3.15751,-0.0489 -8.8232,-0.92033 -12.59041,-1.93653 z"
       id="path2830"
       transform="scale(0.26458333)" />
    <path
       style="opacity:0.93;fill:#ffcc1a;fill-opacity:1;fill-rule:evenodd;stroke:#ffcc1a;stroke-width:1.35081;stroke-opacity:1"
       d="M 690.93721,860.56163 C 656.99948,849.04701 581.18056,816.30356 569.7341,808.21839 565.03177,804.8969 564.61157,803.42961 550.50743,741.078 536.73277,680.18301 531.36844,660.10918 524.25046,642.82201 503.39629,592.17422 459.69637,553.56706 407.94338,540.06928 c -12.76359,-3.32889 -13.25436,-3.35069 -91.1794,-4.05077 l -78.34674,-0.70388 -13.50806,5.67274 c -22.6614,9.51669 -45.3651,20.92876 -56.73385,28.51741 -7.17826,4.7915 -21.35092,17.614 -42.21285,38.19147 l -31.406408,30.97817 -38.007119,-0.95544 c -20.903917,-0.52549 -39.755468,-1.30511 -41.892336,-1.73248 -5.2609049,-1.05218 -5.7703983,-4.10053 -3.276098,-19.60116 5.318281,-33.05005 25.288655,-84.65981 45.89738,-118.61337 16.196288,-26.68392 38.826574,-52.80486 71.724061,-82.78728 31.64171,-28.83792 67.33623,-48.76497 137.47165,-76.74583 l 13.19751,-5.26521 h 55.58115 55.58115 l 16.32211,8.60012 c 112.67253,59.36712 200.32572,128.47489 242.49355,191.18746 43.22883,64.29048 63.32004,153.71757 67.17454,298.99749 l 0.88701,33.43245 -6.63268,-0.0232 c -3.93033,-0.0138 -12.13627,-1.89051 -20.14074,-4.60631 z"
       id="path2869"
       transform="scale(0.26458333)" />
    <path
       style="opacity:0.93;fill:#ffcc1a;fill-opacity:1;fill-rule:evenodd;stroke:#ffcc1a;stroke-width:1.35081;stroke-opacity:1"
       d="m 696.34043,862.58121 c -18.97272,-5.62633 -94.81791,-37.24609 -116.16931,-48.43083 -9.87951,-5.17528 -12.61092,-7.29645 -14.57866,-11.32151 -1.33179,-2.72417 -7.57301,-27.64653 -13.8694,-55.38304 -17.50677,-77.11984 -22.57528,-95.01135 -32.65454,-115.26868 -12.28194,-24.68426 -33.69482,-49.993 -55.34992,-65.42031 -14.62933,-10.42208 -34.95161,-20.43883 -51.0474,-25.161 -11.46743,-3.36432 -14.53335,-3.63096 -54.03224,-4.69911 -23.03124,-0.62282 -59.34683,-1.1706 -80.70133,-1.2173 l -38.82635,-0.0849 -12.50427,4.99185 c -18.98431,7.57875 -53.37804,25.26046 -62.4841,32.12289 -4.45766,3.35934 -21.90769,19.55119 -38.77786,35.98189 L 94.672026,638.56517 78.066847,638.40995 C 38.244165,638.03772 13.358173,636.56211 11.243764,634.44771 8.4066961,631.61064 9.7992393,619.53069 15.57252,596.8969 24.659639,561.27141 44.879935,515.59815 64.560112,486.24457 88.805328,450.08209 135.64872,404.7011 171.55235,382.59251 c 14.40332,-8.86922 53.15418,-27.44196 82.38704,-39.48695 l 24.97779,-10.29175 56.49736,0.11655 56.49736,0.11655 17.80908,9.59747 c 117.137,63.12617 198.64095,127.99084 241.59762,192.27475 10.46592,15.66207 26.42547,48.39948 33.25528,68.21569 13.62688,39.53743 22.84042,87.76929 27.8682,145.88704 2.80981,32.47951 4.83584,72.89546 4.83584,96.46676 v 19.70255 l -6.41633,-0.10321 c -3.52898,-0.0567 -10.0635,-1.1848 -14.52116,-2.50671 z"
       id="path2908"
       transform="scale(0.26458333)" />
  </g>
</svg>
