<?xml version="1.0" encoding="UTF-8" standalone="no"?>
<!-- Created with Inkscape (http://www.inkscape.org/) -->

<svg
   width="210mm"
   height="297mm"
   viewBox="0 0 210 297"
   version="1.1"
   id="svg5"
   inkscape:version="1.1.2 (b8e25be833, 2022-02-05)"
   sodipodi:docname="рисунок-4.svg"
   xmlns:inkscape="http://www.inkscape.org/namespaces/inkscape"
   xmlns:sodipodi="http://sodipodi.sourceforge.net/DTD/sodipodi-0.dtd"
   xmlns="http://www.w3.org/2000/svg"
   xmlns:svg="http://www.w3.org/2000/svg">
  <sodipodi:namedview
     id="namedview7"
     pagecolor="#ffffff"
     bordercolor="#111111"
     borderopacity="1"
     inkscape:pageshadow="0"
     inkscape:pageopacity="0"
     inkscape:pagecheckerboard="1"
     inkscape:document-units="mm"
     showgrid="false"
     inkscape:zoom="0.74029882"
     inkscape:cx="396.46153"
     inkscape:cy="561.93525"
     inkscape:window-width="1920"
     inkscape:window-height="1017"
     inkscape:window-x="-8"
     inkscape:window-y="-8"
     inkscape:window-maximized="1"
     inkscape:current-layer="layer1" />
  <defs
     id="defs2">
    <inkscape:path-effect
       effect="spiro"
       id="path-effect863"
       is_visible="true"
       lpeversion="1" />
  </defs>
  <g
     inkscape:label="Слой 1"
     inkscape:groupmode="layer"
     id="layer1">
    <path
       style="fill:none;stroke:#000000;stroke-width:0.264583px;stroke-linecap:butt;stroke-linejoin:miter;stroke-opacity:1"
       d="m 180.12996,104.36101 c -12.86293,-8.685182 -28.10539,-13.80765 -43.60288,-14.653429 -5.35435,-0.292215 -10.72139,-0.08505 -16.08304,0 -11.31777,0.179528 -22.706842,-0.180877 -33.886892,1.588453 -11.180049,1.76933 -22.340374,5.878178 -30.445236,13.779776 -4.756489,4.6372 -8.285647,10.40431 -11.081927,16.42997 -2.796279,6.02566 -4.899333,12.3437 -7.14551,18.5953 -4.518057,12.57473 -9.668468,25.05029 -11.794223,38.24188 -2.698126,16.74349 -0.301938,34.2735 6.790614,49.6787 z"
       id="path861"
       inkscape:path-effect="#path-effect863"
       inkscape:original-d="m 180.12996,104.36101 c -12.09713,-6.048565 -29.52855,-12.307707 -43.60288,-14.653429 -5.06981,-0.844968 -10.92066,0 -16.08304,0 -23.356772,0 -45.322141,1.11074 -64.332128,15.368229 -10.106046,7.57954 -15.840594,23.09106 -18.227437,35.02527 -2.629418,13.14709 -9.408456,25.12016 -11.794223,38.24188 -3.104806,17.07644 3.337561,33.20579 6.790614,49.6787 z" />
    <path
       style="opacity:0.93;fill:#ff403d;fill-rule:evenodd;stroke:#ff403d;stroke-width:1.35081;fill-opacity:1;stroke-opacity:1"
       d="m 119.14287,846.04402 c -27.920114,-71.90456 -30.647309,-143.11021 -8.39348,-219.1493 6.67304,-22.80113 39.80118,-116.24201 52.92964,-149.29281 17.85784,-44.95699 43.06817,-78.98406 72.65324,-98.06208 26.40351,-17.02638 58.58987,-28.53568 93.93977,-33.59129 28.61421,-4.0923 51.18111,-5.05767 123.90896,-5.30059 65.79043,-0.21976 74.97109,0.0149 89.51837,2.28827 34.34699,5.36752 64.31905,14.61028 95.00986,29.29907 15.11318,7.23325 39.39532,20.93468 39.39532,22.22919 0,0.28777 -123.24415,103.97709 -273.87589,230.42071 C 253.59692,751.32881 129.04909,855.95469 127.4557,857.38714 l -2.89707,2.60446 z"
       id="path902"
       transform="scale(0.26458333)" />
    <path
       style="opacity:0.93;fill:#ff403d;fill-opacity:1;fill-rule:evenodd;stroke:#ff403d;stroke-width:1.35081;stroke-opacity:1"
       d="M 122.50318,853.24485 C 103.65489,802.45108 97.122703,769.9585 97.069847,726.73356 c -0.0327,-26.73928 0.480219,-33.46215 4.225403,-55.38304 5.2704,-30.84815 12.68159,-55.00627 41.85419,-136.43139 29.72606,-82.96991 41.70136,-105.91165 70.21419,-134.51323 15.77496,-15.82406 25.22249,-22.5436 45.3157,-32.23075 20.62203,-9.9421 56.24727,-20.4277 75.90491,-22.34115 2.37172,-0.23086 8.14641,-0.87319 12.83266,-1.4274 4.68624,-0.55421 10.64797,-1.20819 13.24827,-1.4533 2.6003,-0.24511 42.4153,-0.73614 88.47778,-1.09117 90.47902,-0.69739 84.55644,-1.03648 119.54632,6.84446 19.79363,4.45821 39.49847,10.88389 57.82101,18.85522 14.4487,6.286 42.02735,20.6877 47.45259,24.77997 3.18485,2.40234 8.64308,-2.37628 -140.39455,122.91387 -79.48729,66.82188 -77.65224,65.28092 -247.87288,208.14807 -86.92435,72.95611 -158.67745,133.43118 -159.45132,134.38908 -1.06279,1.31552 -1.97805,0.20282 -3.74094,-4.54795 z"
       id="path1186"
       transform="scale(0.26458333)" />
    <path
       style="opacity:0.93;fill:#ff403d;fill-opacity:1;fill-rule:evenodd;stroke:#ff403d;stroke-width:1.35081;stroke-opacity:1"
       d="m 122.79767,854.83221 c -5.92336,-15.17245 -15.51707,-46.60207 -18.79079,-61.55983 -5.770734,-26.36672 -7.18087,-43.79064 -6.340986,-78.35049 1.214109,-49.95864 6.413706,-70.99411 42.824066,-173.24873 30.12862,-84.61303 43.84031,-111.65308 70.79296,-139.6068 24.00134,-24.8928 52.21827,-39.84852 96.02542,-50.89604 32.17505,-8.11408 44.97893,-8.93621 143.11841,-9.18958 l 87.86939,-0.22685 17.56048,3.79001 c 32.39239,6.99114 54.35321,14.13051 79.81049,25.94604 16.11895,7.48131 39.73583,20.70812 39.73583,22.25435 0,1.68902 -16.05665,15.94691 -54.03224,47.97925 -18.20211,15.35344 -40.08516,33.81354 -48.62901,41.02245 -8.54384,7.2089 -87.86992,73.83739 -176.28016,148.06331 -88.41025,74.2259 -185.26953,155.65536 -215.24285,180.95432 -29.97333,25.29896 -55.04392,46.19949 -55.71244,46.44561 -0.66851,0.24613 -1.88737,-1.27353 -2.70857,-3.37702 z"
       id="path1225"
       transform="scale(0.26458333)" />
    <path
       style="opacity:0.93;fill:#ff403d;fill-opacity:1;fill-rule:evenodd;stroke:#ff403d;stroke-width:1.35081;stroke-opacity:1"
       d="m 121.61033,852.4467 c -3.82397,-8.92098 -12.97162,-38.65698 -16.85676,-54.79583 -5.682248,-23.60399 -7.542423,-41.1939 -7.555086,-71.44123 -0.02248,-53.70261 5.677926,-79.25475 38.082276,-170.70414 35.27622,-99.55418 47.24552,-123.72887 75.86647,-153.22936 19.23339,-19.82445 36.12823,-30.75779 64.40189,-41.67709 14.39378,-5.55888 38.55796,-12.02434 55.39832,-14.82257 17.3834,-2.88846 69.24852,-4.5639 143.18542,-4.62543 60.25966,-0.0501 61.77581,0.0142 77.52452,3.29095 24.60099,5.11857 45.07429,10.89423 62.52484,17.63872 17.01287,6.57533 57.48788,26.78281 60.20656,30.05862 2.88966,3.48182 13.77965,-5.8536 -337.36271,289.20363 -115.89915,97.38751 -211.20322,177.07405 -211.78683,177.08118 -0.58361,0.007 -2.21662,-2.68271 -3.62891,-5.97745 z"
       id="path1264"
       transform="scale(0.26458333)" />
    <path
       style="opacity:0.93;fill:#ff403d;fill-opacity:1;fill-rule:evenodd;stroke:#ff403d;stroke-width:1.35081;stroke-opacity:1"
       d="m 122.41511,854.70801 c -3.12241,-6.03808 -11.35873,-31.61245 -16.3475,-50.76015 -7.197375,-27.62475 -8.989797,-43.17991 -8.97523,-77.8897 0.02231,-53.16926 4.84635,-76.26149 32.31047,-154.66727 38.37991,-109.56864 49.9811,-134.52232 76.12244,-163.73626 23.7645,-26.55771 49.99,-42.35381 89.34175,-53.81217 37.86097,-11.02427 58.45034,-12.49229 171.83639,-12.25185 l 76.99594,0.16328 16.14869,3.84455 c 37.30821,8.88205 60.26282,17.12449 89.73424,32.22136 19.26271,9.86741 25.82064,13.95859 25.82064,16.10824 0,3.56107 -41.19908,38.43415 -530.77902,449.27952 -9.9815,8.37626 -18.62793,15.22958 -19.21429,15.22958 -0.58636,0 -1.93389,-1.67811 -2.99452,-3.72913 z"
       id="path1303"
       transform="scale(0.26458333)" />
    <path
       style="opacity:0.93;fill:#ff403d;fill-opacity:1;fill-rule:evenodd;stroke:#ff403d;stroke-width:1.35081;stroke-opacity:1"
       d="m 123.20755,856.74863 c -2.32079,-2.8043 -12.33832,-32.96389 -17.16166,-51.66833 -7.389712,-28.65659 -9.079839,-43.26755 -9.140899,-79.02214 -0.09769,-57.20462 6.083439,-83.25256 45.782479,-192.93212 27.35245,-75.56867 40.33164,-101.39446 64.1776,-127.69954 29.92127,-33.00694 76.50587,-54.13223 136.23962,-61.78229 6.72357,-0.86109 49.30054,-1.75432 102.73926,-2.15539 90.16791,-0.67673 91.43343,-0.64928 106.00221,2.29977 41.95194,8.492 74.70286,20.60009 112.41263,41.55918 6.92999,3.85169 11.14415,7.03398 11.14415,8.41543 0,3.29914 -16.11355,17.2434 -154.66727,133.84524 -66.26599,55.76708 -333.14686,279.90977 -381.35711,320.28676 -6.92291,5.79807 -13.07907,10.54194 -13.68036,10.54194 -0.60129,0 -1.72208,-0.75983 -2.49065,-1.68851 z"
       id="path1342"
       transform="scale(0.26458333)" />
    <path
       style="opacity:0.93;fill:#ff403d;fill-opacity:1;fill-rule:evenodd;stroke:#ff403d;stroke-width:1.35081;stroke-opacity:1"
       d="m 120.20303,850.67 c -8.84206,-23.56474 -17.8499,-56.56575 -20.924369,-76.65823 -2.996503,-19.58295 -3.964251,-53.57491 -2.165039,-76.04662 2.680726,-33.48157 8.399898,-57.715 25.568248,-108.33838 21.37877,-63.03843 38.95115,-109.60508 50.20936,-133.05438 28.64175,-59.65683 71.26434,-92.3739 140.56057,-107.89421 27.26329,-6.10617 34.17931,-6.4815 132.49929,-7.19087 l 94.06617,-0.67868 19.40153,4.32901 c 27.03224,6.03164 55.93705,15.80338 77.81549,26.30681 26.45439,12.70024 38.16866,19.60803 38.16866,22.50764 0,4.07749 -17.44901,18.90709 -414.69741,352.44401 -135.98667,114.17685 -133.39827,112.04104 -135.78276,112.04104 -0.99293,0 -3.11681,-3.49521 -4.71974,-7.76714 z"
       id="path1381"
       transform="scale(0.26458333)" />
    <path
       style="opacity:0.93;fill:#ff403d;fill-opacity:1;fill-rule:evenodd;stroke:#ff403d;stroke-width:1.35081;stroke-opacity:1"
       d="m 121.77228,854.76269 c -6.24611,-12.27603 -19.63853,-60.12524 -23.357352,-83.45253 -2.748841,-17.24282 -2.32504,-76.07455 0.686014,-95.23182 4.720668,-30.03433 14.839038,-64.04169 39.958298,-134.29786 30.02772,-83.9847 44.27855,-112.12442 70.56287,-139.33356 20.83981,-21.57307 44.67624,-36.03228 76.77772,-46.57347 39.52063,-12.97741 60.78898,-14.76327 176.04202,-14.7819 l 80.83919,-0.0131 19.79585,4.75821 c 32.40609,7.78924 52.28425,14.77791 79.95928,28.1117 16.74779,8.06906 31.0615,16.34876 32.61849,18.86801 1.42806,2.31065 -1.40338,4.99778 -41.4513,39.33886 -74.22,63.64362 -503.14737,423.90231 -507.9852,426.65984 -1.30212,0.74221 -2.61544,-0.45488 -4.44588,-4.05241 z"
       id="path1420"
       transform="scale(0.26458333)" />
    <path
       style="opacity:0.93;fill:#ff403d;fill-opacity:1;fill-rule:evenodd;stroke:#ff403d;stroke-width:1.35081;stroke-opacity:1"
       d="m 120.17002,851.11016 c -4.49959,-9.92363 -14.55085,-43.84481 -18.70777,-63.13534 -4.384264,-20.34554 -5.986132,-43.32428 -5.116672,-73.39851 1.170691,-40.4937 5.381712,-62.41177 21.410742,-111.44149 21.24178,-64.97449 44.85941,-126.94834 58.68508,-153.99255 26.49663,-51.82975 66.29888,-82.67236 127.31121,-98.65301 30.72258,-8.04701 52.7239,-9.37339 157.32303,-9.48447 l 83.97453,-0.0892 23.67313,6.04592 c 13.02023,3.32526 30.64825,8.57588 39.17337,11.66805 17.29857,6.2744 59.21813,26.51013 65.48006,31.60903 l 4.05242,3.29976 -4.05242,4.33356 c -8.5052,9.09527 -76.94387,67.16996 -298.5281,253.32067 -212.86572,178.82638 -248.54707,208.59533 -250.0243,208.59533 -0.39579,0 -2.49023,-3.905 -4.65431,-8.67778 z"
       id="path1459"
       transform="scale(0.26458333)" />
    <path
       style="opacity:0.93;fill:#ff403d;fill-opacity:1;fill-rule:evenodd;stroke:#ff403d;stroke-width:1.35081;stroke-opacity:1"
       d="m 122.27047,856.63489 c -5.00473,-7.63817 -19.8491,-59.29054 -23.939165,-83.29852 -2.815081,-16.52405 -2.335572,-80.83508 0.740273,-99.28424 4.970752,-29.81494 17.683362,-72.18427 40.732622,-135.75599 27.36084,-75.4634 41.90985,-105.11366 63.94074,-130.30854 29.30236,-33.51064 73.14958,-55.10572 129.22871,-63.6461 16.61772,-2.53074 104.36211,-4.47055 173.57855,-3.8374 38.08822,0.34841 38.68488,0.3978 56.05845,4.64057 22.17468,5.41523 43.65083,12.26533 60.11086,19.17312 17.07697,7.16672 49.42557,23.88913 52.2504,27.01055 2.12757,2.35094 1.99426,2.76575 -2.37207,7.38073 C 662.06195,409.8471 552.24062,502.7891 254.63168,752.43635 149.50079,840.62468 126.4496,859.75859 125.31839,859.7743 c -0.54009,0.008 -1.91165,-1.40523 -3.04792,-3.13941 z"
       id="path1498"
       transform="scale(0.26458333)" />
    <path
       style="opacity:0.93;fill:#ff403d;fill-opacity:1;fill-rule:evenodd;stroke:#ff403d;stroke-width:1.35081;stroke-opacity:1"
       d="m 122.29291,856.74863 c -3.0686,-4.36955 -13.4199,-36.74077 -18.94896,-59.25836 -6.416479,-26.1317 -7.953848,-43.95904 -7.033729,-81.56315 1.119441,-45.75012 4.692609,-63.31436 25.831229,-126.97576 22.77339,-68.58469 45.04807,-125.23963 58.28458,-148.24498 29.15204,-50.66687 73.04582,-80.76026 136.55065,-93.61853 24.58288,-4.97748 50.00832,-6.11503 143.35282,-6.41369 l 84.72067,-0.27108 17.51809,4.43678 c 37.3552,9.46088 56.24775,16.41681 87.27882,32.13466 20.09951,10.18079 26.90667,14.49724 26.90667,17.06164 0,1.79847 -4.60905,6.14081 -28.67845,27.01897 -39.93891,34.64361 -263.0915,222.6292 -440.7266,371.27173 -75.58534,63.24874 -80.70181,67.46108 -81.94085,67.46108 -0.53929,0 -1.94101,-1.36769 -3.11494,-3.03931 z"
       id="path1537"
       transform="scale(0.26458333)" />
    <path
       style="opacity:0.93;fill:#ff403d;fill-opacity:1;fill-rule:evenodd;stroke:#ff403d;stroke-width:1.35081;stroke-opacity:1"
       d="m 119.10388,849.9946 c -4.89629,-11.77708 -14.14485,-43.30681 -18.7155,-63.80401 -2.848124,-12.77246 -3.424655,-19.57284 -4.069807,-48.00471 -1.314019,-57.90888 2.62837,-81.01338 25.464337,-149.23452 18.72819,-55.94942 37.71884,-105.86018 50.60503,-132.99891 27.14522,-57.16869 70.12605,-91.19904 134.9204,-106.82409 8.91532,-2.14991 21.3765,-4.55808 27.69152,-5.35148 16.04129,-2.01538 90.56094,-3.94832 154.3288,-4.00309 l 53.69376,-0.0461 23.30217,5.98937 c 36.45792,9.3708 56.45368,16.89915 87.46546,32.93052 16.02263,8.28282 22.9637,13.04336 22.9637,15.7497 0,3.23945 -51.85855,47.61579 -262.05635,224.24656 -264.3707,222.15269 -287.1984,241.14411 -289.85534,241.14411 -0.91664,0 -3.49882,-4.407 -5.73818,-9.79334 z"
       id="path1576"
       transform="scale(0.26458333)" />
    <path
       style="opacity:0.93;fill:#ff403d;fill-opacity:1;fill-rule:evenodd;stroke:#ff403d;stroke-width:1.35081;stroke-opacity:1"
       d="m 120.91022,854.89693 c -7.21575,-15.20608 -21.108644,-66.1485 -23.532346,-86.28839 -1.871892,-15.55458 -1.897659,-65.09536 -0.04331,-83.26914 3.204426,-31.40537 14.380596,-70.73702 41.398806,-145.69245 21.95013,-60.89525 35.72491,-91.81463 50.85148,-114.1431 10.1124,-14.92701 31.85995,-36.9098 45.45537,-45.94705 30.93701,-20.56467 71.13397,-33.73326 113.4677,-37.17221 9.28679,-0.75441 56.39614,-1.74905 104.68745,-2.21031 98.13491,-0.93735 88.80529,-1.61148 127.51252,9.21366 25.28563,7.07155 39.52891,12.54886 64.30192,24.72757 23.59677,11.60045 31.74394,16.6771 31.74394,19.78022 0,4.07891 -34.56533,33.7799 -254.62691,218.7936 -242.32696,203.733 -294.46352,247.09861 -297.07572,247.09861 -1.00098,0 -2.86438,-2.20095 -4.1409,-4.89101 z"
       id="path1615"
       transform="scale(0.26458333)" />
    <path
       style="opacity:0.93;fill:#ff403d;fill-opacity:1;fill-rule:evenodd;stroke:#ff403d;stroke-width:1.35081;stroke-opacity:1"
       d="m 121.07314,856.07323 c -6.82887,-13.21509 -21.440934,-67.15418 -23.883372,-88.16328 -2.255472,-19.40088 -1.007471,-83.14535 1.94335,-99.26104 8.124402,-44.37083 47.614272,-159.37081 72.544572,-211.25989 11.52333,-23.98427 20.64,-37.8378 34.9864,-53.16472 29.00254,-30.98477 68.1232,-50.46621 118.88013,-59.20032 20.64363,-3.55231 69.06688,-5.21668 153.07167,-5.26129 l 65.9447,-0.035 13.75285,3.45001 c 37.18208,9.32743 60.89553,17.744 87.71401,31.13217 19.24168,9.60572 30.23367,16.21791 31.21602,18.77787 0.98975,2.57926 -14.8905,16.88824 -81.53808,73.47029 -113.33712,96.22025 -439.74097,370.15856 -461.75921,387.5369 -3.96716,3.13116 -8.05462,5.69302 -9.08325,5.69302 -1.02862,0 -2.73403,-1.67162 -3.78979,-3.71471 z"
       id="path1654"
       transform="scale(0.26458333)" />
    <path
       style="opacity:0.93;fill:#ff403d;fill-opacity:1;fill-rule:evenodd;stroke:#ff403d;stroke-width:1.35081;stroke-opacity:1"
       d="m 120.40828,854.72242 c -6.30314,-12.42383 -20.637857,-64.68899 -23.076654,-84.13877 -1.822932,-14.53815 -1.846751,-71.70749 -0.03701,-88.81762 2.077428,-19.64093 10.839934,-53.24278 24.908194,-95.51628 21.36571,-64.20149 42.8113,-118.73431 56.41026,-143.44258 13.86228,-25.1867 35.31966,-49.20718 57.06352,-63.87977 28.04153,-18.92224 67.39293,-32.30557 107.4281,-36.53607 8.07881,-0.85368 54.5905,-1.82145 108.06447,-2.24849 l 93.88101,-0.74972 18.91128,4.92461 c 32.40101,8.43741 55.1726,16.81335 81.72376,30.05997 13.74445,6.85723 26.8135,14.03017 29.04233,15.93987 l 4.05241,3.47218 -11.48185,10.94056 c -26.40528,25.16045 -529.33683,448.55049 -538.89566,453.66622 -4.14519,2.21843 -5.26595,1.70333 -7.99416,-3.67411 z"
       id="path1693"
       transform="scale(0.26458333)" />
    <path
       style="opacity:0.93;fill:#ff403d;fill-opacity:1;fill-rule:evenodd;stroke:#ff403d;stroke-width:1.35081;stroke-opacity:1"
       d="m 120.43485,854.72242 c -5.13576,-10.22859 -14.79881,-42.52768 -20.711466,-69.2288 -2.947457,-13.31051 -3.140764,-17.01019 -3.140764,-60.11086 0,-42.6527 0.222793,-47.02754 3.124645,-61.35675 5.922425,-29.24467 25.273025,-90.03906 46.953535,-147.51546 17.83116,-47.27152 28.45652,-70.19884 42.03456,-90.70188 8.45583,-12.76842 34.97048,-39.35482 47.28257,-47.41051 28.29183,-18.51109 66.81965,-31.71362 105.10055,-36.01536 7.99305,-0.8982 52.71102,-1.82048 109.52884,-2.25896 l 96.02078,-0.74102 20.82393,5.65426 c 38.62151,10.48679 66.05211,21.30641 94.50704,37.27701 18.90049,10.60808 18.68159,9.90252 6.64928,21.43237 -17.7038,16.96446 -150.40717,129.43078 -370.08025,313.64355 -148.0499,124.15123 -170.2644,142.39793 -173.36279,142.39793 -1.20289,0 -3.33159,-2.27948 -4.73046,-5.06552 z"
       id="path1732"
       transform="scale(0.26458333)" />
    <path
       style="opacity:0.93;fill:#ff403d;fill-opacity:1;fill-rule:evenodd;stroke:#ff403d;stroke-width:1.35081;stroke-opacity:1"
       d="m 122.6442,858.78625 c -4.4864,-5.14984 -14.01758,-34.57829 -22.2065,-68.56481 -3.37106,-13.99091 -3.614982,-17.2569 -4.175746,-55.91141 -0.384316,-26.49156 -0.03605,-45.89587 0.981894,-54.70764 2.852252,-24.69034 15.795932,-70.18513 36.709812,-129.02853 24.34754,-68.50439 42.48503,-108.87242 58.3186,-129.79783 11.34075,-14.98777 31.75857,-34.62582 45.03213,-43.31232 27.26413,-17.84222 62.62197,-30.023 101.83064,-35.08066 6.80842,-0.87825 51.38304,-1.7503 110.68333,-2.1654 l 99.28423,-0.69499 26.15884,7.51173 c 14.38737,4.13146 33.23111,10.32181 41.87498,13.75635 19.32609,7.67899 50.81663,23.61897 57.03666,28.871 l 4.60688,3.88992 -6.75403,7.01352 c -12.51817,12.99913 -107.18456,93.43863 -354.58654,301.29766 -47.27631,39.72 -150.48293,125.80618 -174.92936,145.9112 -5.94355,4.88802 -12.37921,9.89988 -14.30148,11.13743 -3.27808,2.11043 -3.62347,2.10267 -5.56434,-0.12522 z"
       id="path1771"
       transform="scale(0.26458333)" />
    <path
       style="opacity:0.93;fill:#ff403d;fill-opacity:1;fill-rule:evenodd;stroke:#ff403d;stroke-width:1.35081;stroke-opacity:1"
       d="m 121.83802,857.79245 c -5.68109,-7.22234 -21.5877,-62.07069 -24.628943,-84.92422 -1.05725,-7.94475 -1.358588,-26.17809 -0.914473,-55.33274 0.61179,-40.16193 0.920539,-44.61833 4.042066,-58.34222 11.86753,-52.17604 50.64635,-162.07766 72.91045,-206.63285 12.75137,-25.51821 23.81843,-40.37438 44.72991,-60.04441 23.23189,-21.85269 58.38906,-38.27435 100.13775,-46.77362 21.8143,-4.44099 41.93947,-5.41898 126.30035,-6.1376 109.30681,-0.93112 101.48718,-1.26989 124.80736,5.40706 33.12875,9.4853 50.26287,15.86962 74.43651,27.73568 21.8788,10.73959 34.44555,18.3347 34.44555,20.81826 0,2.2778 -15.00355,16.01692 -55.38304,50.71562 -88.26829,75.85024 -427.68585,361.15002 -481.84777,405.02046 -15.20839,12.3186 -15.81261,12.5881 -19.03572,8.49058 z"
       id="path1810"
       transform="scale(0.26458333)" />
    <path
       style="opacity:0.93;fill:#ff403d;fill-opacity:1;fill-rule:evenodd;stroke:#ff403d;stroke-width:1.35081;stroke-opacity:1"
       d="m 122.3948,858.59942 c -5.84712,-6.46098 -21.56673,-58.95161 -25.180646,-84.08272 -1.854113,-12.89346 -1.82219,-82.74614 0.04468,-97.76949 4.557206,-36.67341 42.156206,-150.88856 69.589936,-211.39458 14.21634,-31.35463 24.67397,-46.93342 45.1156,-67.20899 24.35419,-24.15635 53.15222,-39.45428 93.5481,-49.69411 26.84339,-6.80445 34.87568,-7.32169 138.41421,-8.91314 109.94794,-1.68996 100.09961,-2.33788 138.22385,9.09377 26.81177,8.03958 44.0604,14.96058 69.01852,27.69367 21.88184,11.16363 27.63645,15.38847 26.16907,19.21243 -1.60303,4.1774 -60.96921,55.17225 -231.57218,198.91777 -198.47624,167.2308 -311.73068,261.62361 -317.61308,264.71716 -3.15086,1.65703 -3.7993,1.59264 -5.75806,-0.57177 z"
       id="path1849"
       transform="scale(0.26458333)" />
    <path
       style="opacity:0.93;fill:#ff403d;fill-opacity:1;fill-rule:evenodd;stroke:#ff403d;stroke-width:1.35081;stroke-opacity:1"
       d="M 122.44367,859.11531 C 118.14344,854.81507 107.29571,821.84522 100.4429,792.24765 94.222915,765.38329 93.545657,690.83509 99.270936,663.24569 109.57452,613.59398 150.37031,496.93741 173.90827,449.81836 c 14.55473,-29.13615 38.1903,-56.31166 63.70733,-73.24889 20.07608,-13.32575 49.66462,-24.81958 79.38358,-30.83699 22.7799,-4.6124 44.42472,-5.63467 142.95022,-6.75139 90.9377,-1.03071 86.30523,-1.37362 120.42539,8.91423 26.93431,8.12117 41.89474,13.93031 65.04287,25.25612 21.56522,10.55134 32.68689,17.63332 32.68689,20.81413 0,3.68766 -33.97771,33.31305 -169.52614,147.81096 -224.78655,189.87748 -380.12711,319.36222 -383.13323,319.36222 -0.53794,0 -1.88862,-0.91055 -3.00151,-2.02344 z"
       id="path1888"
       transform="scale(0.26458333)" />
    <path
       style="opacity:0.93;fill:#ff403d;fill-opacity:1;fill-rule:evenodd;stroke:#ff403d;stroke-width:1.35081;stroke-opacity:1"
       d="m 119.73259,854.72242 c -6.68081,-13.24564 -19.739067,-58.86014 -22.331991,-78.00904 -4.286983,-31.65965 -2.673058,-94.74613 3.058321,-119.54632 12.33105,-53.35756 50.62695,-161.8465 72.55651,-205.54623 28.2876,-56.36962 70.63919,-88.91333 135.64371,-104.23101 8.17238,-1.92574 20.0257,-4.14717 26.34072,-4.93651 14.12462,-1.76551 105.32022,-3.99094 165.47372,-4.03804 50.55804,-0.0396 51.70076,0.12171 91.17939,12.86997 39.26108,12.678 86.45158,35.91153 86.45158,42.56312 0,4.4355 -46.58454,44.74199 -240.44345,208.03966 -222.78816,187.66632 -309.13113,259.25073 -312.70047,259.25073 -1.09548,0 -3.4481,-2.88735 -5.22804,-6.41633 z"
       id="path1927"
       transform="scale(0.26458333)" />
  </g>
</svg>
