<svg xmlns="http://www.w3.org/2000/svg" data-name="Layer 1" width="796.56" height="663.687"><path d="M796.36 661.434c-3.694-6.691-13.924-9.803-20.55-12.176-14.73-5.276-30.143-8.72-45.446-11.852-21.874-4.475-43.948-7.964-66.062-11.017-26.994-3.728-54.083-6.756-81.214-9.297q-46.02-4.31-92.186-6.794-48.87-2.668-97.822-3.383c-32.816-.46-65.647-.229-98.448.89-31.404 1.073-62.793 2.947-94.067 6.026-28.248 2.782-56.44 6.512-84.312 11.929-23.853 4.635-47.593 10.456-70.438 18.811q-7.16 2.62-14.173 5.611l2.203 1.694c8.465-20.765 17.786-46.132 4.56-67.109-5.102-8.093-14.3-15.116-24.364-13.828-8.156 1.044-16.182 9.356-13.522 18 2.302 7.479 12.73 10.92 18.479 5.304a1.516 1.516 0 0 0-1.061-2.56c-10.833.863-14.236 13.853-10.658 22.663 5.546 13.655 23.996 13.71 36.161 12.247 1.893-.227 1.916-3.23 0-3-10.348 1.245-25.467 2.003-32.116-7.943-4.411-6.598-3.098-20.194 6.613-20.968l-1.06-2.56c-3.291 3.213-8.62 2.155-11.622-.986-4.047-4.234-1.881-10.609 2.091-14.07 9.849-8.58 23.293.707 28.784 9.715 12.311 20.197 2.894 44.497-5.178 64.298-.56 1.375 1.171 2.134 2.204 1.694 21.21-9.038 43.555-15.329 66.015-20.38a783.464 783.464 0 0 1 81.068-13.377c30.374-3.548 60.89-5.822 91.433-7.275 32.114-1.527 64.27-2.13 96.42-2.038q48.771.14 97.509 2.344 46.685 2.07 93.27 5.91c27.98 2.317 55.922 5.124 83.783 8.592 23.576 2.935 47.108 6.323 70.483 10.582 17.22 3.137 34.455 6.642 51.258 11.59 8.922 2.628 19.852 5.41 27.079 11.59a9.265 9.265 0 0 1 2.296 2.637c.933 1.69 3.525.179 2.59-1.514Z" fill="#f2f2f2"/><path d="m450.847 150.889 61.849 35.397a11.502 11.502 0 0 0 15.592-4.158 11.502 11.502 0 0 0-4.6-16.046l-65.374-34.8-38.832-22.82a10.037 10.037 0 1 0-9.491 8.71Z" fill="#ffb6b6"/><path d="M496.84 184.757a3.392 3.392 0 0 0 3.21 2.568 4.4 4.4 0 0 1 2.52.927 4.045 4.045 0 0 1 .392.358 6.636 6.636 0 0 0 5.766 2.098c3.479-.512 7.536.693 10.893 2.193 3.673 1.64 7.313 3.505 11.273 4.22 5.711 1.029 12.44-.737 14.038-7.781a13.359 13.359 0 0 0-1.196-8.87c-2.866-5.75-8.463-9.212-13.85-12.472l2.764.25a51.075 51.075 0 0 1-15.244-13.594c-.543 1.457-2.854 1.31-3.855.12-1-1.189-1.117-2.857-1.383-4.388-.335-1.93-1.249-4.116-3.654-3.966a4.182 4.182 0 0 0-2.936 1.613 79.033 79.033 0 0 0-14.693 28.818c-.633 2.336-1.13 4.952.03 7.077s4.692 2.911 5.925.829Z" fill="#2f2e41"/><path d="M349.924 322.518a18.939 18.939 0 0 1-16.34-11.314c-3.222-7.186-2.068-15.694 1.894-22.332 4.133-6.924 10.598-11.02 17.586-14.644 6.403-3.32 13.299-7.213 16.217-14.211a13.803 13.803 0 0 0 .484-9.609 12.33 12.33 0 0 0-2.21-4.073 11.755 11.755 0 0 0-4.122-2.818c-1.523-.79-2.234-2.268-2.991-3.737-.84-1.63-1.756-3.203-2.676-4.788q-3.28-5.65-6.298-11.446a265.545 265.545 0 0 1-19.526-48.25c-9.177-31.462-12.042-65.299-4.357-97.393 3.673-15.34 9.67-30.368 18.51-43.485 8.146-12.089 19.323-22.772 33.316-27.602 13.45-4.643 29.89-4.191 41.41 4.997 9.46 7.546 15.02 20.742 12.455 32.756a26.385 26.385 0 0 1-3.282 8.244l2.742 1.156c6.688-17.992 29.119-24.752 46.409-19.83 21.135 6.015 32.351 28.714 33.32 49.303 1.19 25.261-12.111 48.548-27.764 67.378a257.195 257.195 0 0 1-55.945 49.821 263.537 263.537 0 0 1-67.505 31.997q-4.44 1.369-8.925 2.578a1.501 1.501 0 0 0 .798 2.892 266.15 266.15 0 0 0 71.284-31.11 263.79 263.79 0 0 0 59.318-50.417c16.69-19.187 31.52-42.81 31.814-69.05.24-21.584-9.885-45.77-30.866-54.613-17.417-7.34-40.984-2.619-51.64 13.802a32.788 32.788 0 0 0-3.191 6.452c-.607 1.633 1.885 2.565 2.742 1.155 6.789-11.168 4.969-25.608-2.053-36.218C422.543 6.038 408.425.37 394.233.957c-32.947 1.363-54.069 31.123-64.478 59.385-11.748 31.897-11.927 67.122-4.713 100.062a255.909 255.909 0 0 0 17.09 50.798q5.634 12.429 12.45 24.275c.96 1.671 1.986 3.307 2.866 5.022a16.674 16.674 0 0 0 2.742 4.38c1.236 1.23 2.995 1.508 4.31 2.588a8.628 8.628 0 0 1 2.625 4.627c1.933 7.945-5.48 13.97-11.567 17.404-3.789 2.138-7.79 3.905-11.429 6.307a37.076 37.076 0 0 0-8.44 7.576c-4.887 6.053-7.67 13.729-6.806 21.555a23.244 23.244 0 0 0 11.244 17.796 20.712 20.712 0 0 0 9.797 2.786c1.931.055 1.93-2.945 0-3Z" fill="#6c63ff"/><path fill="#a0616a" d="m215.565 301.691 14-75 44-4 28.884 81.614-86.884-2.614z"/><path fill="#ffb6b6" d="m526.565 232.691-36 79 83.5 8.732 22.5-95.732-70 8zM654.207 543.912l-7.351 8.206-35.855-25.08 10.849-12.111 32.357 28.985z"/><path d="M644.031 581.972a4.932 4.932 0 0 0 6.956-.381l14.614-16.317-3.299-8.014 6.794 4.106 5.518-6.153-22.289-16.85-2.044 2.032-8.358 8.267-2.691 2.672 5.872 5.26-2.673 21.093a4.924 4.924 0 0 0 1.6 4.285Z" fill="#2f2e41"/><path fill="#ffb6b6" d="m511.44 618.695-11.01.407-6.845-43.217 16.248-.601 1.607 43.411z"/><path d="M476.984 637.797a4.932 4.932 0 0 0 5.104 4.741l21.889-.811 3.478-7.94 1.761 7.741 8.26-.3-3.35-27.74-2.881-.06-11.753-.276-3.791-.081.291 7.878-17.035 12.721a4.924 4.924 0 0 0-1.973 4.127ZM576.589 305.139h-82.78l-26.244 57.552s-20.196 97.573-9 122c11 24 32 109 32 109l22-5 5-15s-8.442-14.032-6-19-6-5-6-5 .132-3.294 1-13-8-70-8-70l30-94Z" fill="#2f2e41"/><path d="m511.392 324.256 17.173 48.435-9.947 81.386a15.872 15.872 0 0 0 5.63 14.149l92.317 76.465 21-24-6.77-5.764s-11.003-3.583-8.117-6.91-7.148-6.085-7.148-6.085-1.638 6.958-7.801-6.642-43.25-36.82-43.25-36.82 51.086-107.78 12.11-153.331Z" fill="#2f2e41"/><path fill="#a0616a" d="m139.923 530.912 7.351 8.206 35.855-25.08-10.85-12.111-32.356 28.985z"/><path d="m151.699 564.687-2.673-21.092 5.872-5.26-2.691-2.673-8.358-8.267-2.044-2.031-22.29 16.85 5.519 6.152 6.793-4.106-3.298 8.014 14.614 16.317a4.926 4.926 0 0 0 8.556-3.904Z" fill="#2f2e41"/><path fill="#a0616a" d="m235.809 576.882 10.012 4.597 22.891-37.29-14.777-6.785-18.126 39.478z"/><path d="m260.068 603.167-10.857-18.28 3.29-7.164-3.533-1.379-10.96-4.252-2.684-1.048-13.729 24.336 7.513 3.444 4.595-6.474.168 8.665 19.905 9.142a4.926 4.926 0 0 0 6.292-6.99ZM217.541 292.139h82.78l26.244 57.552s28 103 9 122-71 84-71 84l-18-7 49-95-30-94Z" fill="#2f2e41"/><path d="m282.738 311.256-17.173 48.435 9.947 81.386a15.872 15.872 0 0 1-5.63 14.149l-88.317 61.465-13-15 61.087-56.22s-51.087-107.78-12.11-153.332ZM582.565 284.69l-73-19s2.704-23.977-1.648-22.988-.503-7.013-.503-7.013 3.15-2.998-.527-7.357c-12.58-14.907-2.441-34.061-2.441-34.061a40.32 40.32 0 0 1 34.35-38.537l27.113-4.043a39.013 39.013 0 0 1 38.535 45.097Z" fill="#2f2e41"/><path fill="#2f2e41" d="m570.565 160.691-41 1 4-19h30l7 18z"/><path d="m631.26 251.08-46.833-53.712a11.502 11.502 0 0 1 1.022-16.105 11.502 11.502 0 0 1 16.637 1.367l46.937 57.285 29.989 33.606a10.037 10.037 0 1 1-6.681 11.014Z" fill="#ffb6b6"/><path d="M589.035 212.617a3.392 3.392 0 0 1-3.148-2.645 4.4 4.4 0 0 0-1.403-2.289 4.044 4.044 0 0 0-.428-.315 6.636 6.636 0 0 1-3.187-5.243c-.18-3.511-2.157-7.253-4.286-10.251-2.329-3.28-4.87-6.484-6.346-10.227-2.13-5.4-1.717-12.344 4.877-15.291a13.359 13.359 0 0 1 8.933-.566c6.2 1.684 10.691 6.494 14.944 11.136l-.786-2.66a51.075 51.075 0 0 0 16.317 12.284c-1.321.817-.724 3.055.638 3.803s3.02.535 4.574.496c1.958-.05 4.281.418 4.606 2.806a4.182 4.182 0 0 1-1.007 3.196 79.033 79.033 0 0 1-25.38 20.055c-2.166 1.08-4.634 2.079-6.945 1.359s-3.774-4.031-1.973-5.648ZM518.338 105.514c9.128 15.725-8.06 42.219 9.262 47.72l-1.427-1.427c-10.456-12.86 11.398-40.082.943-52.943a31.423 31.423 0 0 1-4.155-6.175Z" fill="#2f2e41"/><path d="M589.557 103.13a31.132 31.132 0 1 1-53.547-21.592l.15-.15c.248-.261.497-.523.759-.772a.012.012 0 0 0 .012-.012c.324-.3.648-.598.984-.884a31.124 31.124 0 0 1 51.642 23.41Z" fill="#2f2e41"/><circle cx="550.755" cy="110.334" r="26.105" fill="#ffb8b8"/><path d="M569.405 85.234a29.443 29.443 0 0 0-30.737-5.968c-.132.06-.28.118-.412.177-.516.206-1.032.442-1.547.693l-.295.132v.045l-.177.132a1.048 1.048 0 0 1-.427.236 16.12 16.12 0 0 0-12.157 5.054c-4.037 4.391-5.952 11.493-5.363 19.98l.015.266.235.147c.074.044.133.089.207.133a96.518 96.518 0 0 0 5.923 3.418c1.15.62 2.27 1.18 3.39 1.695l.397.177c.427.206.87.398 1.297.59 10.786 4.714 20.732 5.45 30.28 2.283l.177-.059 3.212-5.378 1.017-1.695c.22 1.209.353 3.11.5 5.29a81.67 81.67 0 0 0 1.135 10.153v.029c.59 2.976 1.503 5.378 3.006 6.174a1.955 1.955 0 0 0 .737.28l2.387-3.153 6.277-8.281.103-.487c2.55-11.508-1.134-24.386-9.18-32.063Z" fill="#2f2e41"/><path d="M643.565 35.69c-5.29-7.013-10.14-26.817-17.906-30.913a38.551 38.551 0 0 0-2.358-1.15 9.231 9.231 0 0 1 .428 5.865c-.693 2.387-2.461 4.288-4.185 6.086q-7.183 7.537-14.381 15.059A38.274 38.274 0 0 0 612.206.37a34.089 34.089 0 0 0-12.039.354c-8.575 1.856-16.444 7.662-19.848 15.752-2.902 6.837-2.49 14.602-1.561 21.97.928 7.367 2.357 14.823 1.326 22.175-1.017 7.368-5.07 14.839-11.98 17.58 1.533-.93 1.43-3.42.148-4.657a5.295 5.295 0 0 0-3.773-1.267 7.28 7.28 0 0 0-1.282.103c-5.496.87-9.518 5.467-13.025 9.799a4.896 4.896 0 0 0-3.934 3.212 3.94 3.94 0 0 0 0 2.755c1.164 2.918 5.85 3.478 7.662.914a15.039 15.039 0 0 0 13.187 18.566c6.351.604 16.445 1.562 20.644-3.256 6.557-7.545 16.621-15.104 17.682-25.05 1.046-9.931 6.542-7.957 8.841-17.682 2.299-9.74 11.744-13.1 20.63-17.682 9.93-5.128-.44-14.75 8.68-8.266Z" fill="#2f2e41"/><path d="M563.225 108.646c9.128 15.724-8.06 42.218 9.262 47.72l-1.427-1.427c-10.455-12.861 11.399-40.082.943-52.943a31.423 31.423 0 0 1-4.155-6.176Z" fill="#2f2e41"/><path d="M577.365 117.053s-7.733-28.866-40.882-35.528a4.208 4.208 0 0 1-.324-.137 4.374 4.374 0 0 0-.348-.187c.373-.211.734-.398 1.108-.585a.012.012 0 0 0 .012-.012c.324-.3.648-.598.984-.884l.947.037s33.26-5.268 38.503 37.296Z" fill="#fd6584"/><path d="m287.67 247.588-29.581-72.069a12.574 12.574 0 0 1 6.723-16.31 12.574 12.574 0 0 1 16.739 7.267l28.432 75.803 19.218 45.333a10.973 10.973 0 1 1-10.79 9.05Z" fill="#a0616a"/><path d="M257.494 192.923a3.708 3.708 0 0 1-2.328-3.845 4.81 4.81 0 0 0-.646-2.862 4.424 4.424 0 0 0-.333-.477 7.255 7.255 0 0 1-1.454-6.548c1.048-3.698.318-8.266-.83-12.118-1.257-4.215-2.76-8.425-2.972-12.818-.304-6.338 2.566-13.38 10.428-14.112a14.604 14.604 0 0 1 9.445 2.558c5.825 3.923 8.781 10.481 11.55 16.782l.123-3.03a55.835 55.835 0 0 0 12.568 18.455c-1.656.38-1.825 2.907-.678 4.16 1.147 1.254 2.938 1.617 4.56 2.123 2.044.638 4.284 1.939 3.78 4.524a4.572 4.572 0 0 1-2.166 2.954 86.399 86.399 0 0 1-33.324 11.831c-2.622.355-5.528.521-7.667-1.037s-2.489-5.5-.056-6.54Z" fill="#e6e6e6"/><path d="m288.565 264.69-66.19.831s-7.423-.326-7.423-4.81 4.149-5.424-1.29-8.878-7.68-1.213-6.558-6.818 2.242-7.46 2.242-8.775-1.121-6.921-1.121-12.527c0-2.717 8.73-7.652 6.559-23.578-2.647-19.403-1.718-49.096 16.985-54.9l13.453-23.544h25.645l7.989 23.543 9.47 12.41s18.68 23.622 13.074 35.954-12.835 71.093-12.835 71.093Z" fill="#e6e6e6"/><path d="m347.92 152.999-74.845 21.61a12.574 12.574 0 0 1-15.488-8.447 12.574 12.574 0 0 1 9.036-15.855l78.434-20.065 47.146-14.2a10.973 10.973 0 1 1 7.83 11.705Z" fill="#a0616a"/><path d="M290.312 177.083a3.708 3.708 0 0 1-4.074 1.899 4.81 4.81 0 0 0-2.916.333 4.422 4.422 0 0 0-.509.279 7.255 7.255 0 0 1-6.667.738c-3.563-1.443-8.184-1.211-12.137-.486-4.326.793-8.674 1.832-13.065 1.567-6.333-.383-13.024-3.998-12.9-11.893a14.604 14.604 0 0 1 3.564-9.113c4.53-5.366 11.37-7.596 17.934-9.667l-3-.45a55.835 55.835 0 0 0 19.707-10.497c.2 1.687 2.693 2.128 4.063 1.124 1.37-1.005 1.925-2.746 2.603-4.304.855-1.963 2.39-4.05 4.907-3.268a4.572 4.572 0 0 1 2.702 2.472 86.399 86.399 0 0 1 8.157 34.41c.069 2.644-.08 5.551-1.861 7.509s-5.737 1.879-6.508-.653Z" fill="#e6e6e6"/><circle cx="253.573" cy="96.016" r="29.898" fill="#a0616a"/><path d="M230.471 73.913c.308-2.69 2.152-6.016 3.435-8.401s3.76-4.333 6.463-4.167a6.894 6.894 0 0 1 5.281 3.59 14.457 14.457 0 0 1 1.643 6.382 33.43 33.43 0 0 1-10.87 26.618c-2.096 1.88-4.617 3.552-7.431 3.616a9.585 9.585 0 0 1-6.789-3.054c-4.555-4.561-5.243-12.06-2.81-18.03s3.517-8.293 9.078-11.554" fill="#2f2e41"/><path d="M272.471 116.913c-.5 2.66 4.1 15.31 2.63 17.59 0 0-15.221 5.287-21.041 5.667-7.11.46-12.829-2.457-19.479-6.847a14.93 14.93 0 0 0-2.01-6.76 9.046 9.046 0 0 1-.94 4.62c-9.74-7.76-13.396-29.099-3.766-39.009l10-23c-3 1 6.056-14.45 15.606-3.26 11.95-12.17 35.1 5.35 38 21-2.79-3.533-4.244-3.117-4.96-.68a13.775 13.775 0 0 0-3.8-5.31 11.513 11.513 0 0 1 1.24 5.31c-18.85 1.17-15.341 13.886.109 32.936-5.714-3.557-1.858 11.77-4.909 15.433-.15-2.56-6.14-15.2-6.68-17.69Z" fill="#2f2e41"/><path d="M245.269 92.42a1 1 0 0 1-.273-1.962c.262-.432.154-2.253.068-3.724-.325-5.524-.87-14.77 8.106-21.01a1 1 0 1 1 1.142 1.642c-8.055 5.6-7.572 13.815-7.251 19.25.182 3.107.315 5.352-1.57 5.78a.993.993 0 0 1-.222.024Z" fill="#6c63ff"/><path d="M245.735 83.817a56.402 56.402 0 0 1-19.207 4.256c-5.236.222-11.484-.945-13.613-5.735-1.291-2.906-.603-6.311.578-9.264s2.84-5.74 3.523-8.846c1.474-6.69-2.004-13.78-7.342-18.072s-12.228-6.187-19.023-7.048c5.105-1.895 10.29-3.807 15.716-4.261s11.223.725 15.274 4.364c4.385 3.937 6.07 10.053 6.816 15.898s.784 11.867 2.766 17.417 6.533 10.718 12.406 11.21" fill="#2f2e41"/><path d="M708.942 524.46a14.447 14.447 0 0 0-12.664-16.032l-.106-.01v-.002l-.002.002.012-.106-.108-.013a14.446 14.446 0 1 0-28.802-1.535l-3.155 26.877.105.012.003-.002 26.983 3.167a14.426 14.426 0 0 0 17.734-12.357ZM111.321 474.31a14.447 14.447 0 0 0-14.756 14.132v.106h-.002l.002.002-.106-.002-.003.109a14.446 14.446 0 1 0 1.21 28.818l27.054.586.003-.107-.003-.002.589-27.162a14.426 14.426 0 0 0-13.988-16.48Z" fill="#f2f2f2"/></svg>