<svg xmlns="http://www.w3.org/2000/svg" data-name="Layer 1" width="717.67" height="542.281"><path d="M358.318 278.225a36.16 36.16 0 1 1 0-72.321c.174 0 .344.01.517.013v-42.459l-.365-.365-.375.375a70.249 70.249 0 1 0-92.68 105.281l86.317 86.316a3.972 3.972 0 0 0 6.78-2.79l.323-74.063c-.173.002-.343.013-.517.013Z" fill="#6c63ff"/><path d="M464.273 169.526a70.159 70.159 0 0 0-5.717-6.449 70.255 70.255 0 0 0-99.356 0c-.122.123-.234.252-.356.375l-.009-.01v42.46c-.173-.003-.343-.014-.517-.014a36.446 36.446 0 0 0-4.654.309 14.99 14.99 0 1 0-24.654 14.683 36.166 36.166 0 0 0-2.37 3.727 14.993 14.993 0 1 0-2.515 29.773c.064 0 .126-.009.19-.01a36.036 36.036 0 0 0 4.156 8.09 14.99 14.99 0 1 0 25.572 15.49 36.472 36.472 0 0 0 4.275.26c.174 0 .344-.011.517-.014v73.639a3.972 3.972 0 0 0 6.78 2.808l86.64-86.64a70.15 70.15 0 0 0 12.018-98.477Z" fill="#f2f2f2"/><path fill="#ffb6b6" d="m598.744 522.951-10.186-.157-4.244-39.36 15.033.231-.603 39.286z"/><path d="m603.795 539.9-.07-.96-.32-4.79-1.23-18.12-3.32-.25-11.15-.84-1.79-.14-.1 6.98-15.64 10.44a4.36 4.36 0 0 0 .84 7.68 4.232 4.232 0 0 0 1.51.3l19.38.3.3-.6 3.14-6.25 1.08 6.25.12.67 7.3.11Z" fill="#2f2e41"/><path fill="#ffb6b6" d="m619.542 509.96-8.031 6.265-27.99-27.996 11.853-9.248 24.168 30.979z"/><path d="m634.635 520.57-16.76-18.16-2.75 1.89-9.2 6.34-1.48 1.02 4.29 5.5-5.33 16.99-.3.95a4.342 4.342 0 0 0 .62 3.84c.03.05.07.09.1.14a3.923 3.923 0 0 0 .86.82 4.365 4.365 0 0 0 2.59.85 4.318 4.318 0 0 0 2.59-.85c.03-.02.05-.04.08-.06l15.27-11.92-1.61-7.49 5.27 4.63Z" fill="#2f2e41"/><path d="m627.396 263.56-12.926-47.842a7.999 7.999 0 0 0-9.703-5.639 8 8 0 0 0-5.76 9.736q.052.205.115.408l14.95 49.284 7.823 30.33a6.98 6.98 0 1 0 8.95.4ZM533.437 253.858l34.498-35.579a8 8 0 0 0-.118-11.222 7.999 7.999 0 0 0-11.312.03q-.15.15-.291.308l-34.702 38.056-22.061 22.235a6.98 6.98 0 1 0 4.234 7.895ZM558.944 261.128l6.796 30.103 44.298-2.769c-4.626-15.535-6.242-18.67-2.765-29.482Z" fill="#ffb8b8"/><path d="M592.366 190.248h-18.111l-7.778 13.31-3.707-.205c-7.651-.423-26.085 15.82-26.085 23.483l10.597 13.636 9.23-8.306s-11.43 5.829.334 12.83c0 0-2.098 13.193 0 13.051s6.93-2.826 2.098-.141-4.472 3.045-3.847 3.67l.625.626 50.818 8.532s1.486-9.85 1.646-11.608-.913 2.539.16-1.757 2.686-2.685 1.075-4.296 3.055-21.57-1.896-29.31l-2.101 24.093 17.535-5.538c2.143-9.618.197-19.487-4.615-29.532 0-7.426-7.425-10.211-14.851-10.211h-.952Z" fill="#e6e6e6"/><path d="m611.778 285.65 1.533 17.014s17.211 17.077 11.374 38.993-16.704 81.621-16.704 81.621 5.785 53.992-6.44 77.435l-18.382-3.663-10.982-73.249-5.01-83.299-3.954-23.66 2.527-27.457Z" fill="#2f2e41"/><path fill="#2f2e41" d="m575.442 307.126-12.229 9.717-26.429 113.237 58.884 75.121 11.364-10.504-39.446-68.725 9.229-61.833-6.879-29.174 5.506-27.839zM557.168 165.093c6.194 10.672-5.47 28.652 6.285 32.386l-.968-.969c-7.096-8.728 7.735-27.202.64-35.93a21.326 21.326 0 0 1-2.82-4.19Z"/><path d="M605.5 163.476a21.128 21.128 0 1 1-36.34-14.655l.102-.1c.17-.178.338-.356.516-.525a.008.008 0 0 0 .008-.008c.22-.203.44-.406.668-.6a21.122 21.122 0 0 1 35.047 15.888Z" fill="#2f2e41"/><circle cx="579.168" cy="168.364" r="17.717" fill="#ffb8b8"/><path d="M591.825 151.33a19.982 19.982 0 0 0-20.86-4.05c-.09.04-.19.08-.28.12-.35.14-.7.3-1.05.47l-.2.09v.03l-.12.09a.71.71 0 0 1-.29.16 10.94 10.94 0 0 0-8.25 3.43c-2.74 2.98-4.04 7.8-3.64 13.56l.01.18.16.1c.05.03.09.06.14.09 1.4.87 2.73 1.64 4.02 2.32.78.42 1.54.8 2.3 1.15l.27.12c.29.14.59.27.88.4 7.32 3.2 14.07 3.7 20.55 1.55l.12-.04 2.18-3.65.69-1.15c.15.82.24 2.11.34 3.59a55.43 55.43 0 0 0 .77 6.89v.02c.4 2.02 1.02 3.65 2.04 4.19a1.327 1.327 0 0 0 .5.19l1.62-2.14 4.26-5.62.07-.33c1.73-7.81-.77-16.55-6.23-21.76Z" fill="#2f2e41"/><path d="M661.835 182.14c-3.59 4.76-12.99 12.81-18.26 15.59-.53.28-1.06.54-1.6.78a6.265 6.265 0 0 0 .29-3.98 10.572 10.572 0 0 0-2.84-4.13q-4.875-5.115-9.76-10.22a25.975 25.975 0 0 1 4.78 20.54 23.135 23.135 0 0 1-8.17-.24c-5.82-1.26-11.16-5.2-13.47-10.69-1.97-4.64-1.69-9.91-1.06-14.91.63-5 1.6-10.06.9-15.05-.69-5-3.44-10.07-8.13-11.93a2.097 2.097 0 0 1 .1 3.16 3.594 3.594 0 0 1-2.56.86 4.94 4.94 0 0 1-.87-.07c-3.73-.59-6.46-3.71-8.84-6.65a3.323 3.323 0 0 1-2.67-2.18 2.674 2.674 0 0 1 0-1.87 3.143 3.143 0 0 1 5.2-.62 10.206 10.206 0 0 1 8.95-12.6c4.31-.41 11.16-1.06 14.01 2.21 4.45 5.12 11.28 10.25 12 17 .71 6.74 4.44 5.4 6 12 1.56 6.61 7.97 8.89 14 12 6.74 3.48 5.81 15.4 12 11ZM587.63 167.219c6.195 10.671-5.469 28.652 6.287 32.385l-.969-.968c-7.096-8.728 7.736-27.202.64-35.93a21.325 21.325 0 0 1-2.82-4.191Z" fill="#2f2e41"/><path d="M597.227 172.924a36.038 36.038 0 0 0-27.745-24.111 2.86 2.86 0 0 1-.22-.093 2.977 2.977 0 0 0-.236-.127c.253-.143.498-.27.752-.397a.008.008 0 0 0 .008-.008c.22-.203.44-.406.668-.6l.642.025s22.573-3.575 26.131 25.311Z" fill="#fd6584"/><path d="M244.123 218.957a6.48 6.48 0 0 1-7.143 5.538 6.216 6.216 0 0 1-1.005-.215l-28.14 34.1-9-12 33.177-30.407a6.462 6.462 0 0 1 6.753-4.08 6.184 6.184 0 0 1 5.38 6.895q-.01.085-.022.169Z" fill="#a0616a"/><path d="M160.865 212.29s18.78-2.131 22.78 6.869 14.08 27.74 14.08 27.74-5.17 2.202.11-3.519c2.366-2.564-2-1 1-2s4 0 4 0l10 17s-.804 3.874-6 4 3-5-4 2c-3.614 3.614-6.064 2.24-6.064 2.24l-44.22-24.47Z" fill="#3f3d56"/><path d="M75.061 346.61a6.48 6.48 0 0 0 .173-9.038 6.217 6.217 0 0 0-.773-.677l13.374-48.515-16-7-6.402 57.301a6.462 6.462 0 0 0 .763 7.852 6.184 6.184 0 0 0 8.744.195q.061-.058.121-.119Z" fill="#a0616a"/><path d="M111.514 206.942s-8.053-11.798-21.817 3.53-18.055 55.305-17.41 57.817 4.276 1.07-.04 5.291-7.314 1.22-4.314 4.22 2.033 7.492-3.098 8.58 22.056 5.412 22.056 5.412 2.908-1.063 3.031-8.07c.07-3.935-1.93-5.935 1.07-6.935s-.69-7.678-.374-8.832 13.315-22.154 13.315-22.154Z" fill="#3f3d56"/><ellipse cx="526.344" cy="674.485" rx="5.257" ry="7.557" transform="rotate(-81.722 302.117 724.226)" fill="#f2f2f2"/><ellipse cx="575.516" cy="669.687" rx="5.257" ry="7.557" transform="rotate(-81.722 351.288 719.428)" fill="#f2f2f2"/><ellipse cx="512.879" cy="634.677" rx="5.257" ry="7.557" transform="rotate(-81.722 288.652 684.418)" fill="#f2f2f2"/><ellipse cx="495.669" cy="619.434" rx="4.776" ry="3.322" transform="rotate(-89.567 284.75 651.276)" fill="#f2f2f2"/><ellipse cx="488.423" cy="589.062" rx="4.776" ry="3.322" transform="rotate(-89.567 277.504 620.905)" fill="#f2f2f2"/><ellipse cx="544.768" cy="642.514" rx="4.776" ry="3.322" transform="rotate(-89.567 333.849 674.357)" fill="#f2f2f2"/><ellipse cx="521.007" cy="654.378" rx="4.776" ry="3.322" transform="rotate(-89.567 310.087 686.22)" fill="#f2f2f2"/><ellipse cx="554.084" cy="676.306" rx="4.776" ry="3.322" transform="rotate(-89.567 343.164 708.148)" fill="#f2f2f2"/><ellipse cx="718.344" cy="322.485" rx="5.257" ry="7.557" transform="rotate(-81.722 494.117 372.226)" fill="#f2f2f2"/><ellipse cx="767.516" cy="317.687" rx="5.257" ry="7.557" transform="rotate(-81.722 543.288 367.428)" fill="#f2f2f2"/><ellipse cx="704.879" cy="282.677" rx="5.257" ry="7.557" transform="rotate(-81.722 480.652 332.418)" fill="#f2f2f2"/><ellipse cx="687.669" cy="267.434" rx="4.776" ry="3.322" transform="rotate(-89.567 476.75 299.276)" fill="#f2f2f2"/><ellipse cx="680.423" cy="237.062" rx="4.776" ry="3.322" transform="rotate(-89.567 469.504 268.905)" fill="#f2f2f2"/><ellipse cx="736.768" cy="290.514" rx="4.776" ry="3.322" transform="rotate(-89.567 525.849 322.357)" fill="#f2f2f2"/><ellipse cx="713.007" cy="302.378" rx="4.776" ry="3.322" transform="rotate(-89.567 502.087 334.22)" fill="#f2f2f2"/><ellipse cx="746.084" cy="324.306" rx="4.776" ry="3.322" transform="rotate(-89.567 535.165 356.148)" fill="#f2f2f2"/><path d="M461.335 0h-205a15.5 15.5 0 0 0 0 31h205a15.5 15.5 0 0 0 0-31ZM640.905 55.785H76.765a2.463 2.463 0 0 1 0-4.925h564.14a2.463 2.463 0 0 1 0 4.925Z" fill="#e6e6e6"/><ellipse cx="104.938" cy="15.644" rx="8.457" ry="8.645" fill="#e6e6e6"/><ellipse cx="134.152" cy="15.644" rx="8.457" ry="8.645" fill="#e6e6e6"/><ellipse cx="163.365" cy="15.644" rx="8.457" ry="8.645" fill="#e6e6e6"/><path d="M196.677 22.477a.997.997 0 0 1-.715-.3l-5.706-5.834a1 1 0 0 1 0-1.398l5.706-5.833a1 1 0 1 1 1.443 1.385l-.013.014-5.022 5.133 5.022 5.134a1 1 0 0 1-.715 1.699ZM206.265 22.477a1 1 0 0 1-.715-1.7l5.022-5.133-5.022-5.133a1 1 0 0 1 1.43-1.399l5.706 5.833a1 1 0 0 1 0 1.398l-5.706 5.833a.997.997 0 0 1-.715.3ZM592.775 8h-10.61a2.19 2.19 0 0 0-2.19 2.189V20.81a2.19 2.19 0 0 0 2.189 2.19h10.611a2.198 2.198 0 0 0 2.2-2.19V10.19a2.198 2.198 0 0 0-2.2-2.19ZM566.775 8h-10.61a2.19 2.19 0 0 0-2.19 2.189V20.81a2.19 2.19 0 0 0 2.189 2.19h10.611a2.198 2.198 0 0 0 2.2-2.19V10.19a2.198 2.198 0 0 0-2.2-2.19ZM617.275 8.5h-10.61a2.19 2.19 0 0 0-2.19 2.189V21.31a2.19 2.19 0 0 0 2.189 2.19h10.611a2.198 2.198 0 0 0 2.2-2.19V10.69a2.198 2.198 0 0 0-2.2-2.19Z" fill="#e6e6e6"/><path d="M347.285 12.54h-84.81a2.67 2.67 0 1 0-.006 5.34h84.816a2.67 2.67 0 0 0 0-5.34Z" fill="#fff"/><path fill="#a0616a" d="m130.66 530.521 9.901-.001 4.71-38.19-14.613.001.002 38.19z"/><path d="m130.311 540.85 30.447-.002v-.385a11.852 11.852 0 0 0-11.85-11.85h-.001l-5.562-4.22-10.376 4.22h-2.658Z" fill="#2f2e41"/><path fill="#a0616a" d="m87.66 530.521 9.901-.001 4.71-38.19-14.613.001.002 38.19z"/><path d="m87.311 540.85 30.447-.002v-.385a11.852 11.852 0 0 0-11.85-11.85h-.001l-5.562-4.22-10.376 4.22H87.31ZM159.991 323.244s11.27 15.712 3.135 42.856 2.432 51.412.149 56.278-6.88 9.488-3.082 13.177 5.798 6.69 2.798 7.69-19 71-19 71l-17 1s-6.158-32.518.42-58.759c0 0-1.443-19.05 1.568-24.646s2.422-.548 2.217-7.572a61.67 61.67 0 0 0-2.205-15.024c-1-4-1.58-44.315-1.58-44.315l-10.1 53.799a13.321 13.321 0 0 0-.73 5.76c.41 2.756.414 6.874-.088 8.315s-1.06 1.744-.781 4.593-11.72 74.39-11.72 74.39h-19l-9-75.542a24.752 24.752 0 0 0 4-6c2-4 2.077-4.22 1.038-7.11s-1.039-8.52-1.039-10.204-1.039-78.183 11.98-89.434 68.02-.252 68.02-.252Z" fill="#2f2e41"/><path d="m101.645 203.159 18.98-4.918 8.86-12.22 21.042 2.586 4.479 16.668 14.98 8.695s-8.28 87.572-6.31 92.38-2.81 8.832-8.841 15.03 5.01-.718 6.41 6.03 11.6 13.89 0 13.82-75.41 3.15-73.41-4.85-4.222-10.19-1.206-15.205 5.045-2.213 4.03-9.615-.014-12.401-.014-16.401 3.35-40.349 3.35-40.349Z" fill="#e6e6e6"/><circle cx="143.164" cy="160.873" r="23.056" fill="#a0616a"/><path d="M127.991 178.787c5.45-4.26-2-23 7-19 0 0 11-7 13.21-2.4 2.56 5.326 11.66 2.91 17.25 1.03a13.581 13.581 0 0 1-.93-3.19 25.539 25.539 0 0 0 3.27 2.19 6.638 6.638 0 0 0 2-1.64 4.062 4.062 0 0 0 .51-4.61c-.93-1.43-2.85-1.87-3.98-3.14a1.367 1.367 0 0 1-.188-1.257 3.594 3.594 0 0 0-3.22-4.5 1.293 1.293 0 0 1-.612-.133 14.011 14.011 0 0 1-2.61-2.06 25.898 25.898 0 0 0 3.94-.11c.27-.03.54-.06.81-.1a8.856 8.856 0 0 0-5.47-4.97 26.015 26.015 0 0 0-7.92-1.11l-4.64-.15a46.398 46.398 0 0 0-9.79.34 23.908 23.908 0 0 0-16.57 11.84c-3.39 6.15-7.06 25.97 7.94 32.97Z" fill="#2f2e41"/><path d="M169.835 341.38c3.62 6.46-16.77 8.36-38.86 7.49a14.65 14.65 0 0 0-2.09-4.58c-2.44-3.54.51-27.49-3.05-29.91 1.61 3.9-4.9 29.82-6.26 33.81-19.98-1.6-38.19-5.23-37.97-9.55.06-1.26 4.23-25.26 6.25-27.08 2.01-1.82-.02-36.18 0-43.55.01-7.38 10.98-61.63 10.98-63.63s26-12 26-12l11 63 16.72-59.24a35.355 35.355 0 0 0 5.63 6.03c3.35 2.79 16.65 14.21 16.65 14.21l-11.39 84.28s5.39 12.72 5.11 17.77a35.42 35.42 0 0 1-2.33 11.71c-1.62 4.75-1.45 2.2 3.61 11.24Z" fill="#3f3d56"/><circle cx="358.835" cy="239.38" r="15" fill="#fff"/><path d="M0 541.09a1.186 1.186 0 0 0 1.183 1.19H716.48a1.19 1.19 0 1 0 0-2.38H1.19A1.187 1.187 0 0 0 0 541.085Z" fill="#ccc"/><path d="M365.335 237.38h-4.5v-4.5a2 2 0 0 0-4 0v4.5h-4.5a2 2 0 0 0 0 4h4.5v4.5a2 2 0 1 0 4 0v-4.5h4.5a2 2 0 0 0 0-4Z" fill="#3f3d56"/><path d="M606.905 283.36a70.16 70.16 0 0 0-5.717-6.449 70.255 70.255 0 0 0-99.356 0c-.122.123-.234.251-.356.375l-.009-.01v42.459c-.173-.003-.343-.013-.517-.013a36.447 36.447 0 0 0-4.654.308 14.99 14.99 0 1 0-24.654 14.684 36.164 36.164 0 0 0-2.37 3.727 14.993 14.993 0 1 0-2.515 29.773c.064 0 .126-.009.19-.01a36.037 36.037 0 0 0 4.156 8.09 14.99 14.99 0 1 0 25.572 15.489 36.47 36.47 0 0 0 4.275.26c.174 0 .344-.01.517-.013v73.638a3.972 3.972 0 0 0 6.78 2.809l86.64-86.64a70.15 70.15 0 0 0 12.018-98.478Z" fill="#6c63ff"/><circle cx="502.598" cy="356.134" r="15" fill="#3f3d56"/><path d="M509.098 354.134h-4.5v-4.5a2 2 0 0 0-4 0v4.5h-4.5a2 2 0 0 0 0 4h4.5v4.5a2 2 0 0 0 4 0v-4.5h4.5a2 2 0 0 0 0-4Z" fill="#6c63ff"/></svg>